<?xml version="1.0" encoding="UTF-8"?>
<svg fill="#8D99A6" width="100pt" height="100pt" version="1.1" viewBox="0 0 100 100" xmlns="http://www.w3.org/2000/svg">
 <path d="m58.961 70.945c-0.31641 0-0.63281-0.10156-0.89844-0.30078-14.016-10.473-28.84-11.004-31.668-11.004-0.36328 0-0.5625 0.007813-0.58203 0.007813-0.63281 0.019531-1.2461-0.36328-1.4727-0.97266-4.3945-11.762-0.15234-21.77 0.03125-22.188 0.23438-0.53906 0.76562-0.89453 1.3555-0.90234 17.891-0.25781 27.633-7.3594 32.312-10.773 0.45703-0.33203 1.0625-0.37891 1.5625-0.125 0.50391 0.25781 0.82031 0.77344 0.82031 1.3359 0 2.6289 0.011719 13.039 0.019531 23.062 0.011719 9.2969 0.019532 18.258 0.019532 20.355 0 0.56641-0.32031 1.0859-0.82813 1.3398-0.21484 0.10938-0.44531 0.16406-0.67187 0.16406zm-32.16-14.301c3.5977 0.054688 17.203 0.88672 30.656 9.8984-0.003906-3.8633-0.011719-10.566-0.015625-17.453-0.007812-7.7383-0.015625-15.711-0.019531-20.152-5.4609 3.7578-15.02 9.1797-30.625 9.625-0.82031 2.4648-2.7461 9.7852 0.003906 18.082z"/>
 <path d="m53.406 83.094" fill="none" stroke="#8D99A6" stroke-miterlimit="10" stroke-width="3"/>
 <path d="m25.715 59.652l-2.8164-0.050782c-4.1406 0-7.4023-5.2773-7.4023-12.016 0-6.7383 3.2656-12.016 7.4297-12.016h3.1758v3h-3.1758c-2.0938 0-4.4297 3.7031-4.4297 9.0156s2.3359 9.0156 4.4297 9.0156l2.8438 0.050782z"/>
 <path d="m76.453 27.086l-2.4805 1.9805c3.6133 4.8555 5.832 11.375 5.832 18.543 0 7.1719-2.2188 13.688-5.832 18.543l2.4805 1.9844c4.0547-5.4102 6.5508-12.613 6.5508-20.527 0-7.9102-2.4961-15.113-6.5508-20.523z"/>
 <path d="m65.852 36.582c1.5508 3.3047 2.4375 7.0547 2.4375 11.027 0 3.9805-0.88672 7.7266-2.4375 11.031l2.5586 2.0469c1.957-3.8828 3.0781-8.3359 3.0781-13.078 0-4.7383-1.1211-9.1914-3.0781-13.074z"/>
 <path d="m33.078 75.773c-2.3984 0-4.3477-1.9492-4.3477-4.3477v-14.52l8.6992 1.0977v13.418c0 2.3984-1.9531 4.3516-4.3516 4.3516zm-1.3477-15.465v11.113c0 0.74219 0.60547 1.3477 1.3477 1.3477s1.3477-0.60547 1.3477-1.3477l0.003907-10.773z"/>
</svg>
