<?xml version="1.0" encoding="UTF-8"?>
<svg fill="#8D99A6" width="100pt" height="100pt" version="1.1" viewBox="0 0 100 100" xmlns="http://www.w3.org/2000/svg">
 <path d="m79.715 46.961h-0.41797l-0.13672-0.39453c-1.3125-5.6758-6.2148-9.6289-11.941-9.6289-1.2148 0-2.4219 0.1875-3.5859 0.55859l-0.28516 0.089844-0.16016-0.26953c-4.375-7.543-12.414-12.227-20.98-12.227-0.85156 0-1.7344 0.058594-2.7734 0.1875-10.633 1.2656-19.355 9.6523-21.207 20.391l-0.050781 0.28906-0.26172 0.058594c-6.6641 1.4414-11.316 7.3125-11.316 14.281 0 0.21094 0.015625 0.42188 0.027344 0.59766l0.011719 0.25781c0.003906 0.039062 0.003906 0.070312 0.011719 0.10938 0.48828 7.6641 6.7383 13.652 14.262 13.652h58.805c7.5469 0 13.688-6.2656 13.688-13.973 0-7.707-6.1406-13.98-13.688-13.98zm0 25.441h-58.801c-6.2344 0-11.402-5.0039-11.77-11.391 0-0.027344-0.003906-0.0625-0.007812-0.089844l-0.011719-0.19141c-0.011719-0.14062-0.023438-0.28906-0.023438-0.43359 0-5.7734 3.8398-10.637 9.3398-11.828l1.0859-0.23438c0.5-0.10938 0.88281-0.50781 0.97266-1.0117l0.19141-1.1211c1.668-9.6523 9.4922-17.191 19.043-18.328 0.94141-0.11719 1.7305-0.17188 2.4766-0.17188 7.6758 0 14.883 4.207 18.812 10.98l0.66406 1.1367c0.29688 0.50781 0.89844 0.74609 1.4609 0.56641l1.2461-0.39453c0.91797-0.29297 1.8711-0.44141 2.8281-0.44141 4.5742 0 8.4883 3.1836 9.5156 7.7461 0.011719 0.046876 0.023438 0.089844 0.039063 0.13672l0.45312 1.3008c0.17578 0.50391 0.64844 0.83594 1.1836 0.83594h1.3086c6.168 0 11.184 5.1445 11.184 11.465-0.007812 6.3242-5.0234 11.469-11.191 11.469z"/>
</svg>
