<?xml version="1.0" encoding="UTF-8"?>
<svg fill="#8D99A6" width="100pt" height="100pt" version="1.1" viewBox="0 0 100 100" xmlns="http://www.w3.org/2000/svg">
 <path d="m55.75 27.91c-0.78906 0.10938-1.4375 0.67188-1.6562 1.4375l-12 40c-0.21094 0.52344-0.19531 1.1094 0.046875 1.6172 0.24219 0.50391 0.6875 0.88672 1.2266 1.0508 0.53906 0.16406 1.1211 0.09375 1.6016-0.19531 0.48438-0.28516 0.82422-0.76562 0.9375-1.3164l12-40c0.20703-0.64844 0.070312-1.3594-0.36719-1.8867-0.4375-0.52344-1.1133-0.78906-1.7891-0.70313zm-19.844 3c-0.52734 0.03125-1.0195 0.26562-1.375 0.65625l-16 17c-0.71094 0.76953-0.71094 1.9531 0 2.7188l16 17c0.75 0.8125 2.0156 0.86328 2.8281 0.10938 0.8125-0.75 0.85938-2.0156 0.10938-2.8281l-14.719-15.621 14.719-15.656c0.56641-0.59375 0.71094-1.4766 0.36719-2.2188-0.34766-0.74609-1.1094-1.2031-1.9297-1.1562zm27.938 0c-0.77344 0.054688-1.4453 0.55078-1.7266 1.2734s-0.12109 1.543 0.41406 2.1016l14.719 15.656-14.719 15.625c-0.75 0.8125-0.70312 2.0781 0.10938 2.8281 0.8125 0.75391 2.0781 0.70312 2.8281-0.10938l16-17c0.71094-0.76562 0.71094-1.9492 0-2.7188l-16-17c-0.41016-0.45703-1.0117-0.69531-1.625-0.65625z"/>
</svg>
