<?xml version="1.0" encoding="UTF-8"?>
<svg fill="#8D99A6" width="100pt" height="100pt" version="1.1" viewBox="0 0 100 100" xmlns="http://www.w3.org/2000/svg">
 <path d="m88.535 11.465c-0.58594-0.58594-1.5352-0.58594-2.1211 0l-9.9297 9.9297c-5.3984-4.8633-12.211-7.2969-19.02-7.2969-7.2773 0-14.555 2.7734-20.105 8.3281l-4.6406 4.6406 6.2773 6.2734-5.6562 5.6562-6.2734-6.2734-4.6406 4.6406c-10.75 10.746-11.098 27.961-1.0352 39.125l-9.9297 9.9297c-0.58594 0.58594-0.58594 1.5352 0 2.1211 0.58594 0.58594 1.5352 0.58594 2.1211 0l9.9297-9.9297c5.3945 4.8633 12.207 7.2969 19.02 7.2969 7.2773 0 14.555-2.7734 20.109-8.3281l4.6406-4.6406-6.3633-6.3633 5.6562-5.6562 6.3633 6.3633 4.6406-4.6406c10.746-10.75 11.094-27.965 1.0312-39.129l9.9297-9.9297c0.58203-0.58594 0.58203-1.5352-0.003906-2.1172zm-48.125 34.602l5.6562-5.6562 13.434 13.434-5.6562 5.6562zm0.70703-10.605l2.8281 2.8281-5.6562 5.6562-2.8281-2.8281zm19.402 39.996c-4.8047 4.8047-11.191 7.4492-17.988 7.4492s-13.184-2.6445-17.988-7.4492c-4.8047-4.8047-7.4492-11.191-7.4492-17.988 0-6.793 2.6445-13.184 7.4492-17.984l2.5195-2.5195 35.973 35.977zm3.9336-16.66l-5.6562 5.6562-2.8281-2.8281 5.6562-5.6562zm11.004 1.7227l-2.5195 2.5195-35.977-35.977 2.5195-2.5195c4.8047-4.8047 11.191-7.4492 17.984-7.4492 6.7969 0 13.184 2.6445 17.988 7.4492 9.9219 9.918 9.9219 26.059 0.003906 35.977z"/>
</svg>
