<?xml version="1.0" encoding="UTF-8"?>
<svg fill="#8D99A6" width="100pt" height="100pt" version="1.1" viewBox="0 0 100 100" xmlns="http://www.w3.org/2000/svg">
 <g fill-rule="evenodd">
  <path d="m33.203 6.9844c-0.19141 0.042969-0.36328 0.14062-0.5 0.28125l-0.0625 0.03125c-0.011719 0.011719-0.019531 0.023437-0.03125 0.03125l-17.094 14.625c-0.10938 0.074219-0.20703 0.17188-0.28125 0.28125-0.019531 0.023437-0.046875 0.039063-0.0625 0.0625v0.03125c-0.007813 0.011719-0.023437 0.019531-0.03125 0.03125-0.082031 0.15234-0.125 0.32422-0.125 0.5v0.03125 56.438c0.011719 0.55469 0.44141 0.99609 0.96875 1h5.8125v5.1875c-0.003906 0.56641 0.42969 1.0273 0.96875 1.0312h5.75v5.4375c-0.003906 0.56641 0.42969 1.0273 0.96875 1.0312h54.5c0.26562 0.007813 0.51953-0.097656 0.70703-0.29297 0.19141-0.19531 0.29688-0.46094 0.29297-0.73828v-71.312c0.003906-0.27734-0.10156-0.54297-0.29297-0.73438-0.1875-0.19531-0.44141-0.30078-0.70703-0.29688h-5.7188v-5.4375c0.003906-0.27734-0.10156-0.54297-0.29297-0.73438-0.1875-0.19531-0.44141-0.30078-0.70703-0.29688h-5.7812v-5.1875c-0.003906-0.26953-0.11328-0.52734-0.30078-0.71484s-0.44141-0.28906-0.69922-0.28516h-37.094c-0.0625-0.003906-0.125-0.003906-0.1875 0zm1.1562 2.0312h35.156v4.1562h-29.344c-0.23047 0.003906-0.45312 0.09375-0.625 0.25l-0.0625 0.03125c-0.023437 0.03125-0.042969 0.0625-0.0625 0.09375l-5.0625 4.3438zm-1.9375 1.125v9.4062l-2.7188 2.3125h-10.969zm8.75 5.0938h35.125v4.4062h-29.344-0.0625-0.03125c-0.0625 0.003906-0.125 0.015625-0.1875 0.03125-0.054687 0.007813-0.10547 0.019531-0.15625 0.03125-0.011719 0.011719-0.019531 0.023437-0.03125 0.03125-0.03125 0.019531-0.0625 0.042969-0.09375 0.0625-0.019531 0.011719-0.042969 0.019531-0.0625 0.03125s-0.042969 0.019531-0.0625 0.03125v0.03125l-0.0625 0.03125v0.03125l-0.0625 0.03125c-0.011719 0.011719-0.019531 0.023437-0.03125 0.03125l-4.9375 4.25zm-1.9688 1.125v9.5625l-2.4688 2.125h-11.219zm8.6562 5.3438h35.156v69.281h-52.531v-54.406h16.406c0.53906-0.003906 0.97266-0.46484 0.96875-1.0312zm-1.9375 1.125v11.688h-13.688zm-28.938 1.0625h10.344l-4.9375 4.2188c-0.30078 0.14453-0.51562 0.4375-0.5625 0.78125-0.003906 0.019531-0.027344 0.039063-0.03125 0.0625-0.003906 0.042969-0.003906 0.085937 0 0.125v0.03125 49.188h-4.8125zm6.7812 6.2188h10.562l-5.2188 4.4688c-0.03125 0.019531-0.0625 0.042969-0.09375 0.0625-0.082031 0.050781-0.15625 0.11719-0.21875 0.1875-0.046875 0.050781-0.089844 0.10156-0.125 0.15625-0.039063 0.058594-0.070313 0.125-0.09375 0.1875-0.011719 0.03125-0.023437 0.0625-0.03125 0.09375-0.015625 0.0625-0.027344 0.125-0.03125 0.1875v0.09375c-0.003906 0.042969-0.003906 0.085937 0 0.125v48.844h-4.75z"/>
  <path d="m39.773 78.512c-0.26953-0.003907-0.52734 0.10156-0.71875 0.28906-0.19141 0.1875-0.29688 0.44531-0.29688 0.71094 0 0.26953 0.10547 0.52734 0.29688 0.71484 0.19141 0.1875 0.44922 0.28906 0.71875 0.28516h36.875c0.26562 0.003906 0.52344-0.097657 0.71484-0.28516 0.19141-0.1875 0.29688-0.44531 0.29688-0.71484 0-0.26562-0.10547-0.52344-0.29688-0.71094-0.19141-0.1875-0.44922-0.29297-0.71484-0.28906z"/>
  <path d="m39.773 70.555c-0.26953-0.003907-0.52734 0.10156-0.71875 0.28906-0.19141 0.1875-0.29688 0.44531-0.29688 0.71094 0 0.26953 0.10547 0.52344 0.29688 0.71484 0.19141 0.1875 0.44922 0.28906 0.71875 0.28516h36.75-0.003907c0.26953 0.003906 0.52734-0.097657 0.71875-0.28516 0.19141-0.19141 0.29688-0.44531 0.29688-0.71484 0-0.26563-0.10547-0.52344-0.29688-0.71094-0.19141-0.1875-0.44922-0.29297-0.71875-0.28906h-36.75z"/>
  <path d="m39.637 54.23c-0.26953 0-0.52734 0.10156-0.71875 0.28906-0.19141 0.1875-0.29688 0.44531-0.29688 0.71094 0 0.26953 0.10547 0.52734 0.29688 0.71484 0.19141 0.1875 0.44922 0.28906 0.71875 0.28516h37.141-0.003906c0.26953 0.003906 0.52734-0.097657 0.71875-0.28516 0.1875-0.1875 0.29687-0.44531 0.29687-0.71484 0-0.26562-0.10937-0.52344-0.29687-0.71094-0.19141-0.1875-0.44922-0.28906-0.71875-0.28906h-37.141z"/>
  <path d="m39.762 62.332c-0.26562-0.003906-0.52734 0.10156-0.71484 0.28906-0.19141 0.1875-0.30078 0.44531-0.30078 0.71094 0 0.26953 0.10938 0.52344 0.30078 0.71094 0.1875 0.19141 0.44922 0.29297 0.71484 0.28906h36.887c0.26562 0.003907 0.52344-0.097656 0.71484-0.28906 0.19141-0.1875 0.29688-0.44141 0.29688-0.71094 0-0.26562-0.10547-0.52344-0.29688-0.71094-0.19141-0.1875-0.44922-0.29297-0.71484-0.28906z"/>
  <path d="m53.074 29.953c-0.26562-0.003906-0.52344 0.097656-0.71484 0.28516s-0.29688 0.44531-0.29688 0.71484c0 0.26562 0.10547 0.52344 0.29688 0.71094s0.44922 0.29297 0.71484 0.28906h23.574c0.26562 0.003906 0.52344-0.10156 0.71484-0.28906 0.19141-0.1875 0.29688-0.44531 0.29688-0.71094 0-0.26953-0.10547-0.52734-0.29688-0.71484-0.19141-0.1875-0.44922-0.28906-0.71484-0.28516h-23.57z"/>
  <path d="m52.949 37.918c-0.26953-0.003907-0.52734 0.10156-0.71484 0.28906-0.19141 0.1875-0.30078 0.44531-0.30078 0.71094 0 0.26953 0.10938 0.52734 0.30078 0.71484 0.1875 0.1875 0.44531 0.28906 0.71484 0.28516h23.57c0.26953 0.003906 0.52734-0.097657 0.71875-0.28516 0.19141-0.1875 0.29688-0.44531 0.29688-0.71484 0-0.26562-0.10547-0.52344-0.29688-0.71094-0.19141-0.1875-0.44922-0.29297-0.71875-0.28906z"/>
  <path d="m39.637 46.141c-0.26953-0.003906-0.52734 0.10156-0.71875 0.28906-0.1875 0.1875-0.29688 0.44531-0.29688 0.71094 0 0.26953 0.10938 0.52734 0.29688 0.71484 0.19141 0.1875 0.44922 0.28906 0.71875 0.28516h37.266-0.003906c0.26953 0.003906 0.52734-0.097656 0.71875-0.28516 0.19141-0.1875 0.29687-0.44531 0.29687-0.71484 0-0.26562-0.10547-0.52344-0.29687-0.71094-0.19141-0.1875-0.44922-0.29297-0.71875-0.28906h-37.266z"/>
 </g>
</svg>
