<?xml version="1.0" encoding="UTF-8"?>
<svg fill="#8D99A6" width="100pt" height="100pt" version="1.1" viewBox="0 0 100 100" xmlns="http://www.w3.org/2000/svg">
 <g>
  <path d="m81.75 56.75c-1.1055 0-2 0.89453-2 2v15.5c0 3.3086-2.6914 6-6 6h-47.5c-3.3086 0-6-2.6914-6-6v-15.5c0-1.1055-0.89453-2-2-2s-2 0.89453-2 2v15.5c0 5.5156 4.4844 10 10 10h47.5c5.5156 0 10-4.4844 10-10v-15.5c0-1.1055-0.89453-2-2-2z"/>
  <path d="m52 69.5c0 1.1055-0.89453 2-2 2s-2-0.89453-2-2v-51.75c0-1.1055 0.89453-2 2-2s2 0.89453 2 2z"/>
  <path d="m51.438 70.891c-0.76953 0.79297-2.0352 0.8125-2.8281 0.046875-0.79297-0.76953-0.81641-2.0352-0.046875-2.8281l11.473-11.859c0.76953-0.79297 2.0352-0.8125 2.8281-0.046875 0.79297 0.76953 0.8125 2.0352 0.046875 2.8281z"/>
  <path d="m48.562 70.891c0.76953 0.79297 2.0352 0.8125 2.8281 0.046875 0.79297-0.76953 0.81641-2.0352 0.046875-2.8281l-11.473-11.859c-0.76953-0.79297-2.0352-0.8125-2.8281-0.046875-0.79297 0.76953-0.8125 2.0352-0.046875 2.8281z"/>
 </g>
</svg>
