<?xml version="1.0" encoding="UTF-8"?>
<svg fill="#8D99A6" width="100pt" height="100pt" version="1.1" viewBox="0 0 100 100" xmlns="http://www.w3.org/2000/svg">
 <path d="m92.301 63.199c-2.6016-4.0977-10.801-15.598-11.301-16.301-0.80078-1.1992-2-2-3.3984-2.1992-1.5-0.30078-3.1016 0.10156-4.3984 1-2.6016 1.8008-3.3984 5.3008-1.6992 7.8008l1.8984 3.6992-9.6992-3.8984-10.504-21.699 5.8984 3c3.1992 2 7.3008 1 9.3008-2.1992 1-1.5 1.3008-3.3984 0.89844-5.1016-0.39844-1.8008-1.5-3.3008-3-4.3008-0.89844-0.60156-16.398-11-21.898-14.398-6.8984-4.1992-15.699-4.5-23.5-0.80078-6.1992 2.8984-10.898 8-13.297 14.301-2.4023 6.2969-2.2031 13.199 0.39844 19.398l12.398 26.602c1.1992 2.5 3.6016 3.8984 6.1992 3.8984 1 0 1.8984-0.19922 2.8984-0.60156 1.3008-0.60156 2.3008-1.5 2.8984-2.6016l1.6016 3.3984c0.80078 1.6992 2.1016 2.8984 3.8984 3.5 0.80078 0.30078 1.5 0.39844 2.3008 0.39844 0.89844 0 1.6992-0.19922 2.6016-0.5l1.2031 0.40625c-0.69922 0.60156-1.3008 1.3008-1.6992 2.1992-0.69922 1.5-0.69922 3-0.10156 4.5 0.60156 1.3984 1.6016 2.3984 3 2.8984l20.898 8.1992c2.1992 0.80078 4.5 1.1992 6.6992 1.1992 8.3008 0 16.398-5 20.102-13.102 3-6.3945 2.7031-13.395-0.59766-18.695zm-53.402 9.6016c-0.89844-0.30078-1.6992-1-2.1016-1.8984l-3.8984-8.3008c0-0.10156-0.10156-0.19922-0.10156-0.19922l-8.3008-17.602c-0.39844-0.80078-1.3008-1.1016-2-0.69922-0.80078 0.39844-1.1016 1.3008-0.69922 2l8.3008 17.602c0.89844 1.8984 0.10156 4.1016-1.8008 5-1.8984 0.89844-4.1016 0.10156-5-1.8008l-12.496-26.602c-4.8984-11.398 0.10156-24.398 11.301-29.699 6.8984-3.1992 14.602-3 20.699 0.69922 5.5 3.3008 21.699 14.199 21.801 14.301 0.89844 0.5 1.3984 1.3984 1.6992 2.3984 0.19922 1 0 2-0.5 2.8984-0.5 0.89844-1.3984 1.3984-2.3984 1.6992-1 0.19922-2 0-2.8984-0.5 0 0-0.10156 0-0.10156-0.10156l-10.898-5.6016c-0.5-0.30078-1.1016-0.19922-1.6016 0.10156-5.5 3.8984-14.398 3.1992-19-1.3984-0.60156-0.60156-1.6016-0.60156-2.1992 0-0.60156 0.60156-0.60156 1.6016 0 2.1992 5.3984 5.3984 15.199 6.3984 22 2.3984l10.5 22-3.5039-1.6953c-1.6992-0.69922-3.5-0.39844-5.1016 0.5l-4.6992-10c-0.39844-0.80078-1.3008-1.1016-2-0.69922-0.80078 0.39844-1.1016 1.3008-0.69922 2l5.1992 11c-0.10156 0.10156-0.10156 0.19922-0.19922 0.39844-0.39844 0.89844-0.60156 1.8008-0.5 2.8008l-1.5-0.60156c-1.6016-0.60156-3.3008-0.5-4.8008 0.30078l-3.3008-7c-0.39844-0.80078-1.3008-1.1016-2-0.69922-0.80078 0.39844-1.1016 1.3008-0.69922 2l3.6992 7.8984c-0.10156 0.19922-0.19922 0.39844-0.30078 0.69922-0.69922 1.5-0.69922 3-0.10156 4.5 0.5 1.1016 1.3008 2 2.3008 2.6016-0.69922 0.60156-1.3008 1.3008-1.6992 2.1992-0.69922 1.5-0.69922 3-0.10156 4.5 0.10156 0.19922 0.19922 0.39844 0.30078 0.60156-0.29688-0.10156-0.39453-0.19922-0.59766-0.19922zm51.301 7.8008c-4.0977 8.8984-14.199 13.5-23 10.398l-20.898-8.1992c-0.60156-0.19922-1-0.69922-1.3008-1.3008s-0.19922-1.3984 0.10156-2.1016c0.60156-1.3984 2.3008-2.1016 3.6016-1.6016l13.898 5.5c0.80078 0.30078 1.6992-0.10156 2-0.89844 0.30078-0.80078-0.10156-1.6992-0.89844-2l-13.902-5.3984-0.19922-0.10156s-6.8008-2.6992-7-2.8008c-0.39844-0.19922-0.60156-0.60156-0.80078-1-0.30078-0.60156-0.19922-1.3984 0.10156-2.1016 0.30078-0.80078 1-1.3008 1.6992-1.6016 0.60156-0.19922 15.801 5.5 15.801 5.5 0.80078 0.30078 1.6992-0.10156 2-0.89844 0.30078-0.80078-0.10156-1.6992-0.89844-2l-17.898-7c-0.60156-0.19922-1-0.69922-1.3008-1.3008-0.30078-0.60156-0.19922-1.3984 0.10156-2.1016 0.30078-0.60156 0.69922-1 1.1992-1.3984 0.69922-0.39844 1.6016-0.60156 2.3984-0.30078l20.801 8.1992c0.80078 0.30078 1.6992-0.10156 2-0.89844 0.30078-0.80078-0.10156-1.6992-0.89844-2l-14.602-5.8008c-0.69922-0.30078-1.1992-0.80078-1.3984-1.3984-0.30078-0.60156-0.19922-1.3008 0-1.8984 0.19922-0.5 0.60156-0.89844 1-1.1992 0.80078-0.60156 1.8008-0.80078 2.6016-0.39844l21.492 9c0.60156 0.19922 1.3008 0.10156 1.6992-0.39844 0.39844-0.5 0.5-1.1992 0.19922-1.6992 0 0-4-7.5-4-7.6016-0.80078-1.1992-0.39844-2.8008 0.89844-3.6992 0.60156-0.39844 1.3984-0.60156 2.1016-0.5 0.60156 0.10156 1.1016 0.5 1.5 1 0.10156 0.10156 8.6016 12.102 11.199 16.199 2.9023 4.3984 3.1016 10.301 0.60156 15.801z"/>
</svg>
