<?xml version="1.0" encoding="UTF-8"?>
<svg fill="#8D99A6" width="100pt" height="100pt" version="1.1" viewBox="0 0 100 100" xmlns="http://www.w3.org/2000/svg">
 <g>
  <path d="m17.188 100h65.625c3.4375 0 6.25-2.8125 6.25-6.25v-87.5c0-3.4375-2.8125-6.25-6.25-6.25h-65.625c-3.4375 0-6.25 2.8125-6.25 6.25v87.5c0 3.4375 2.8125 6.25 6.25 6.25zm-4.6875-93.75c0-2.5859 2.1016-4.6875 4.6875-4.6875h65.625c2.5859 0 4.6875 2.1016 4.6875 4.6875v87.5c0 2.5859-2.1016 4.6875-4.6875 4.6875h-65.625c-2.5859 0-4.6875-2.1016-4.6875-4.6875z"/>
  <path d="m26.586 77.477h46.832v1.5625h-46.832z"/>
  <path d="m26.586 66.406h46.832v1.5625h-46.832z"/>
  <path d="m24.59 35.227h6.1953v6.8477h3.1602v-15.66h-3.1602v6.1602h-6.1953v-6.1602h-3.1602v15.66h3.1602z"/>
  <path d="m40.742 42.074h3.1562v-13.012h4.6406v-2.6484h-12.445v2.6484h4.6484z"/>
  <path d="m53.473 29.746l3.0977 12.328h3.043l3.1094-12.328v12.328h2.9414v-15.66h-4.7461l-2.8086 10.684-2.8398-10.684h-4.7344v15.66h2.9375z"/>
  <path d="m79.91 39.438h-7.8594v-12.895h-3.1641v15.531h11.023z"/>
 </g>
</svg>
