<?xml version="1.0" encoding="UTF-8"?>
<svg fill="#8D99A6" width="100pt" height="100pt" version="1.1" viewBox="0 0 100 100" xmlns="http://www.w3.org/2000/svg">
 <g>
  <path d="m89.035 90.434l-25.523-25.523c3.3047-4.6211 5.2539-10.273 5.2539-16.375 0-15.57-12.668-28.238-28.238-28.238-15.57 0-28.238 12.668-28.238 28.238 0 15.57 12.668 28.238 28.238 28.238 6.1016 0 11.754-1.9531 16.379-5.2539l25.523 25.523c0.91016 0.91016 2.1094 1.3672 3.3047 1.3672s2.3945-0.45703 3.3047-1.3672c1.8203-1.8281 1.8203-4.7852-0.003906-6.6094zm-74.254-41.898c0-14.219 11.527-25.746 25.746-25.746s25.746 11.527 25.746 25.746-11.527 25.746-25.746 25.746-25.746-11.527-25.746-25.746z"/>
  <path d="m47.012 74.828c0.25781 1.5391 1.6406 2.6562 3.2266 2.5352 1.6758-0.13281 2.9297-1.5977 2.7969-3.2734l-0.11328-1.4805c-1.8594 0.96094-3.8359 1.7109-5.9102 2.2188z"/>
  <path d="m49.871 18.148c-2.1211 0.066406-3.8008 1.7695-3.8789 3.8555 2.8281 0.57812 5.4922 1.6055 7.9258 2.9922l0.085937-2.7188c0.003906-0.078125 0.003906-0.17188 0-0.25391-0.066406-2.207-1.918-3.9453-4.1328-3.875z"/>
  <path d="m48.633 59.266c2.1133 0.066406 3.8867-1.5938 3.9531-3.7109l0.84766-26.855c-2.8047-1.8281-6.0156-3.0781-9.4727-3.582l0.96094 30.438c0.066406 2 1.6797 3.6445 3.7109 3.7109z"/>
  <path d="m49.055 65.305c-2.1172-0.16406-3.9648 1.4141-4.1328 3.5312l-0.23438 2.9961c2.8438-0.50391 5.5078-1.5117 7.9023-2.9336l-0.003906-0.0625c-0.14453-1.8555-1.6172-3.3828-3.5312-3.5312z"/>
  <path d="m29.484 27.555c-2.0898 1.1016-3.9922 2.5-5.6523 4.1484l-6.2383 10.809c-0.50391 1.9258-0.77344 3.9414-0.77344 6.0234 0 0.30859 0.011719 0.61328 0.023438 0.91797z"/>
  <path d="m11.609 82.398c-2.1094 0-4.0703-1.1328-5.125-2.957-1.0547-1.8242-1.0547-4.0938 0-5.918l8.7852-15.219c-0.40234-1.043-0.74609-2.1133-1.0195-3.2148l-9.9258 17.188c-1.4961 2.5938-1.4961 5.8164 0 8.4102 1.4961 2.5938 4.2891 4.2031 7.2812 4.2031h56.027l-2.4922-2.4922z"/>
  <path d="m95.441 71.902l-38.168-66.105c-1.4961-2.5938-4.2891-4.2031-7.2812-4.2031-2.9961 0-5.7852 1.6094-7.2852 4.2031l-9.6445 16.707c1.0742-0.30859 2.1758-0.55859 3.3008-0.73047l8.5039-14.734c1.0547-1.8242 3.0195-2.957 5.125-2.957 2.1055 0 4.0703 1.1328 5.125 2.957l38.184 66.137 0.035157 0.0625c0.63281 0.96484 0.96875 2.0859 0.96875 3.2422 0 3.2617-2.6523 5.918-5.918 5.918h-4.7461l2.4922 2.4922h2.2539c4.6367 0 8.4102-3.7734 8.4102-8.4102 0-1.6328-0.46875-3.2148-1.3555-4.5781z"/>
 </g>
</svg>
