<?xml version="1.0" encoding="UTF-8"?>
<svg fill="#8D99A6" width="100pt" height="100pt" version="1.1" viewBox="0 0 100 100" xmlns="http://www.w3.org/2000/svg">
 <g>
  <path d="m76 83h-52c-4.4102 0-8-3.5898-8-8v-52c0-4.4102 3.5898-8 8-8h52c4.4102 0 8 3.5898 8 8v52c0 4.4102-3.5898 8-8 8zm-52-64c-2.207 0-4 1.793-4 4v52c0 2.207 1.793 4 4 4h52c2.207 0 4-1.793 4-4v-52c0-2.207-1.793-4-4-4z"/>
  <path d="m32.207 17c0 1.1055-0.89453 2-2 2s-2-0.89453-2-2v-9.6641c0-1.1055 0.89453-2 2-2s2 0.89453 2 2z"/>
  <path d="m40.125 17c0 1.1055-0.89453 2-2 2s-2-0.89453-2-2v-9.6641c0-1.1055 0.89453-2 2-2s2 0.89453 2 2z"/>
  <path d="m48.207 17c0 1.1055-0.89453 2-2 2s-2-0.89453-2-2v-9.6641c0-1.1055 0.89453-2 2-2s2 0.89453 2 2z"/>
  <path d="m56.207 17c0 1.1055-0.89453 2-2 2s-2-0.89453-2-2v-9.6641c0-1.1055 0.89453-2 2-2s2 0.89453 2 2z"/>
  <path d="m63.875 17c0 1.1055-0.89453 2-2 2s-2-0.89453-2-2v-9.6641c0-1.1055 0.89453-2 2-2s2 0.89453 2 2z"/>
  <path d="m71.793 17c0 1.1055-0.89453 2-2 2s-2-0.89453-2-2v-9.6641c0-1.1055 0.89453-2 2-2s2 0.89453 2 2z"/>
  <path d="m17.836 66.793c1.1055 0 2 0.89453 2 2s-0.89453 2-2 2h-9.6719c-1.1055 0-2-0.89453-2-2s0.89453-2 2-2z"/>
  <path d="m17.836 58.875c1.1055 0 2 0.89453 2 2s-0.89453 2-2 2h-9.6719c-1.1055 0-2-0.89453-2-2s0.89453-2 2-2z"/>
  <path d="m17.836 50.793c1.1055 0 2 0.89453 2 2s-0.89453 2.0039-2 2.0039l-9.6719-0.003906c-1.1055 0-2-0.89453-2-2.0039 0-1.1055 0.89453-2 2-2z"/>
  <path d="m17.836 42.793c1.1055 0 2 0.89453 2 2s-0.89453 2-2 2h-9.6719c-1.1055 0-2-0.89453-2-2s0.89453-2 2-2z"/>
  <path d="m17.836 35.125c1.1055 0 2 0.89453 2 2s-0.89453 2-2 2h-9.6719c-1.1055 0-2-0.89453-2-2s0.89453-2 2-2z"/>
  <path d="m17.836 27.207c1.1055 0 2 0.89453 2 2s-0.89453 2-2 2h-9.6719c-1.1055 0-2-0.89453-2-2s0.89453-2 2-2z"/>
  <path d="m91.664 66.793c1.1055 0 2 0.89453 2 2s-0.89453 2-2 2h-9.6641c-1.1055 0-2-0.89453-2-2s0.89453-2 2-2z"/>
  <path d="m91.664 58.875c1.1055 0 2 0.89062 2 1.9961 0 1.1055-0.89453 2-2 2h-9.6641c-1.1055 0-2-0.89453-2-2 0-1.1055 0.89453-1.9961 2-1.9961z"/>
  <path d="m91.664 50.789c1.1055 0 2 0.89453 2 2 0 1.1055-0.89453 2.0039-2 2.0039h-9.6641c-1.1055 0-2-0.89844-2-2.0039 0-1.1016 0.89453-2 2-2z"/>
  <path d="m91.664 42.793c1.1055 0 2 0.89453 2 2s-0.89453 2-2 2h-9.6641c-1.1055 0-2-0.89453-2-2s0.89453-2 2-2z"/>
  <path d="m91.664 35.121c1.1055 0 2 0.89453 2 2 0 1.1055-0.89453 2-2 2h-9.6641c-1.1055 0-2-0.89453-2-2 0-1.1055 0.89453-2 2-2z"/>
  <path d="m91.664 27.207c1.1055 0 2 0.89453 2 2s-0.89453 2-2 2h-9.6641c-1.1055 0-2-0.89453-2-2s0.89453-2 2-2z"/>
  <path d="m32.207 90.793c0 1.1055-0.89453 2-2 2s-2-0.89453-2-2v-9.668c0-1.1055 0.89453-2 2-2s2 0.89453 2 2z"/>
  <path d="m40.125 90.793c0 1.1055-0.89453 2-2 2s-2-0.89453-2-2v-9.668c0-1.1055 0.89453-2 2-2s2 0.89453 2 2z"/>
  <path d="m48.207 90.793c0 1.1055-0.89453 2-2 2s-2-0.89453-2-2v-9.668c0-1.1055 0.89453-2 2-2s2 0.89453 2 2z"/>
  <path d="m56.207 90.793c0 1.1055-0.89453 2-2 2s-2-0.89453-2-2v-9.668c0-1.1055 0.89453-2 2-2s2 0.89453 2 2z"/>
  <path d="m63.875 90.793c0 1.1055-0.89453 2-2 2s-2-0.89453-2-2v-9.668c0-1.1055 0.89453-2 2-2s2 0.89453 2 2z"/>
  <path d="m71.793 90.793c0 1.1055-0.89453 2-2 2s-2-0.89453-2-2v-9.668c0-1.1055 0.89453-2 2-2s2 0.89453 2 2z"/>
 </g>
</svg>
