<?xml version="1.0" encoding="UTF-8"?>
<svg fill="#8D99A6" width="100pt" height="100pt" version="1.1" viewBox="0 0 100 100" xmlns="http://www.w3.org/2000/svg">
 <path d="m32.699 54.801c-1.8984 1.3984-2.8008 2.8984-4 4.1016-1.1016 1.1016-2.5 1.8008-3.8984 2.3984-1.3008 0.5-1.8008 0.10156-2-1.3008-0.69922-4.6992 0.5-9 2.3984-13.102 1.8984-4.1992 4.8008-7.6992 7.5-11.301 1.3008-1.8008 2.6992-3.5 4.3008-5 0.69922-0.69922 0.89844-1.6016 1.3984-2.5 0.89844-1.6992 1.8008-3.3984 3-4.8984 1.1016-1.3984 1.1016-3 0.80078-4.6016-0.30078-1.3984-1-2.3008-2.3984-2.8984-2.3984-0.89844-4.6992-1.5-7.1992-1.6016-1.8008 0-3.6016-0.5-5.3984-0.69922-0.60156 0-1.5 0-1.5-0.89844 0-0.80078 0.39844-1.6016 1.3984-1.8008s2-0.5 3-0.69922c3-0.30078 5.8984-0.89844 8.8008-1.8008 1.3984-0.39844 2.6016-1 3.8008-1.6992 1.8984-1.1992 4-1.8008 6.3008-1.8008 2.1016 0 4.1992-0.10156 6.3008 0.5 0.89844 0.30078 1.8008 0.69922 2.5 1.3984 3.5 4 6.3008 8.3984 6.8008 14 0.19922 1.8008 0.39844 3.6016 0.30078 5.5-0.10156 0.69922 0.10156 1.1992 0.5 1.8008 2 3 4.3984 5.6992 6.8984 8.3008 2.8984 2.8984 4.3984 6.3984 5.6016 10.301 1.3008 4.3008 0.60156 8.6016 0.19922 12.801-0.10156 0.5-0.39844 1.1016-0.69922 1.6016-0.5 0.69922-1.3984 0.60156-1.8008-0.10156-0.80078-1.3008-1.6016-2.5-2.6992-3.3984-1.1016-0.89844-2.1016-1.6992-3.1016-2.6992-0.80078 0.80078-0.60156 1.8008-0.69922 2.6992-0.19922 4.3008 0.10156 8.6016-0.89844 12.898-0.69922 3.1016-1.1016 6.3008-2.6992 9.1992-0.80078 1.5-1.8008 2.8984-2.8984 4.1016-1.3008 1.3984-1.3984 2.5-0.19922 4.1016 0.39844 0.5 0.89844 0.89844 1.3984 1.3984 0.39844 0.39844 0.80078 0.69922 1.1016 1.1016 1 1.3008 0.80078 2.3008-0.80078 2.5-1.8008 0.30078-2.8984 1.3008-3.8984 2.6016-0.69922 0.80078-1.3008 0.89844-1.8984-0.10156-0.19922-0.39844-0.60156-0.60156-0.89844-1-0.60156-0.69922-1.3984-1-2.3008-0.60156-0.5 0.19922-1.1016 0.5-1.6016 0-0.5-0.60156-0.19922-1.1992 0.10156-1.8008 0.60156-1.1016 1.1016-2.1992 1.8008-3.6016-2.1992 0.10156-4.1016-0.10156-6.1016 0.19922-1.1992 0.19922-1.3984 1.1016-1.1992 1.8984 0.39844 1.3008-0.10156 2.8008 0.69922 4.1016 0.19922 0.30078 0.10156 0.69922-0.30078 0.89844-0.30078 0.19922-0.60156 0-0.80078-0.19922-1.3008-1.3984-2.6992-1.3008-4.1016-0.39844-1 0.69922-1.8008 0.19922-2.6016-0.30078-1.207-0.39844-2.0078-0.69922-3.0078-0.29688-0.30078 0.19922-0.69922 0.30078-1-0.10156-0.39844-0.39844-0.10156-0.89844 0.19922-1.1992 1.3008-1.6016 2.6992-3.1016 4.1992-4.5 0.39844-0.30078 0.80078-0.69922 1.1016-1 0.60156-0.60156 0.69922-1.1992-0.10156-1.6016-3.6016-1.5-4.5-5.1016-6-8.1016-2.8984-5.8984-3.8008-12.199-3.6016-18.801 0.003906-1.0977-0.097656-2.2969-0.097656-3.9961zm1.3008 5.1992c-0.19922 3.3984 0.39844 6.6992 1 10 0.69922 3.3984 2.5 6.3984 3.8008 9.6016 0.89844 2.1992 2.1992 3.8984 4.3984 5 1.8008 0.89844 3.5 2.1016 5.6016 2.3008 2.6016 0.19922 5.1016-0.30078 7.6016-0.89844 3.1992-0.89844 5.3008-3.3008 7-6 2.1016-3.5 2.6992-7.5 3.6016-11.5 1-4.8984 0.39844-9.8984 0.39844-14.898 0-0.5-0.10156-1-0.5-1.3984-1-0.80078-1.5-2-2.1992-3-2.3008-3.3984-3.6016-7.3008-3.8008-11.301-0.19922-2.8984-0.39844-5.6016-1.6016-8.1992-1.3008-2.6992-4-5.3008-6.8984-5.8008-3.1016-0.60156-5.8008 0.5-8.5 1.6992-2.5 1-4.1016 2.6992-5.1016 5.1016-1.1992 2.8984-2 5.8984-3 8.8984-0.19922 0.60156-0.30078 1.1016-0.39844 1.6992-0.90234 6.1953-1.1016 12.496-1.4023 18.695zm41-2.3984c0.10156-1.1016 0.30078-2.1992 0.30078-3.1992-0.30078-3.3984-1-6.6016-2.3984-9.6992-0.69922-1.5-1.5-3-3-4-0.30078-0.19922-0.5-0.5-0.69922-0.80078-0.89844-1.6992-2.3984-3-3.3008-4.6016-0.5-0.89844-1.3008-1.6992-2.3984-2.1992-1.3008 4-0.89844 7.6016 0.39844 11.301 1.6992 4.6992 5.3984 7.8008 8.8008 11.199 0.59766 0.59766 1.1953 1.5977 2.2969 2zm-40.102-21.203c-0.80078 0.19922-0.89844 0.60156-1.1992 0.89844-0.30078 0.39844-0.69922 0.80078-1.1016 1.1016-4.1016 4.1016-6.8008 9.1016-8.1992 14.699-0.39844 1.9023-0.59766 3.7031-0.39844 5.5039 0.19922 1.3008 0.39844 1.5 1.6992 0.89844 0.80078-0.39844 1.3984-1.1016 2-1.6016 1.5-1.3008 2.3984-3.1992 4.1992-4.1016 0.89844-0.5 1-1.1992 1.1992-2.1016 0.30078-2.6016 0.5-5.1992 0.69922-7.8008 0.30469-2.4961 0.80469-4.8945 1.1016-7.4961zm5-23.5c-3.1992-0.5-6.1992-0.89844-9.1992-0.30078 2.3984 0.69922 4.8984 0.80078 7.1992 1.3984 0.70312 0.20312 1.4023-0.29688 2-1.0977zm-5-1.8984c1.6992 0.69922 3.3984 0.89844 5.3008 0.80078-1-1.9023-1-1.9023-5.3008-0.80078zm23.5 79.199h-0.5c0.10156 0.89844 0.19922 1.8008 0.30078 2.6992 0.5-0.89844 0.69922-1.7969 0.19922-2.6992zm-12.5-79.699c-0.10156-0.30078-0.39844-0.30078-0.69922-0.30078-0.60156 0-0.80078 0.30078-0.69922 0.80078 0.10156 0.30078 0.39844 0.39844 0.69922 0.30078 0.40234-0.30078 0.69922-0.40234 0.69922-0.80078zm15.801 80.898c-0.30078-0.10156-0.5-0.19922-0.69922-0.10156-0.30078 0.10156-0.69922-0.5-0.89844 0-0.10156 0.10156 0 0.39844 0.10156 0.60156 0.30078 0.39844 0.60156 0.19922 0.89844 0 0.19922-0.19922 0.39844-0.29688 0.59766-0.5zm-1.8008-3.6992c0.30078-0.5 0.30078-0.89844-0.10156-1.3008 0 0-0.30078 0-0.39844 0.10156-0.19922 0.5-0.097657 0.89844 0.5 1.1992zm-13.699 0.10156c-0.30078 0-0.5 0.10156-0.5 0.30078 0 0.19922 0.19922 0.39844 0.39844 0.39844 0.30078 0.10156 0.60156-0.10156 0.5-0.5 0.003906-0.10156-0.29688-0.10156-0.39844-0.19922zm10.602 3.1992c-0.10156-0.10156-0.19922-0.30078-0.19922-0.30078-0.39844 0.10156-0.60156 0.39844-0.5 0.80078 0 0.10156 0.19922 0.30078 0.19922 0.30078 0.30078-0.19922 0.39844-0.5 0.5-0.80078zm-17 1c0.10156 0.39844 0.30078 0.60156 0.60156 0.60156 0 0 0.10156-0.39844 0.10156-0.5 0-0.19922 0-0.60156-0.39844-0.39844-0.10547-0.10156-0.20703 0.097656-0.30469 0.29688zm6.6992-0.5c-0.39844 0.30078-0.69922 0.60156-0.39844 1.1016 0 0.10156 0.30078 0.10156 0.39844 0.10156 0.30078-0.40234 0.30078-0.80469 0-1.2031zm-2.3984 0.60156c-0.30078 0-0.30078 0.19922-0.39844 0.39844 0 0.19922 0.10156 0.39844 0.39844 0.39844 0.19922 0 0.39844-0.19922 0.39844-0.39844 0-0.30078-0.19922-0.39844-0.39844-0.39844zm-2.3008 1.2969c0.19922 0 0.39844-0.10156 0.39844-0.39844 0-0.19922-0.10156-0.39844-0.39844-0.39844-0.19922 0-0.39844 0.19922-0.39844 0.39844-0.003906 0.30078 0.19922 0.39844 0.39844 0.39844z"/>
</svg>
