<?xml version="1.0" encoding="UTF-8"?>
<svg fill="#8D99A6" width="100pt" height="100pt" version="1.1" viewBox="0 0 100 100" xmlns="http://www.w3.org/2000/svg">
 <g>
  <path d="m6.1992 94.5v-16.199c-3.5-0.19922-6.1992-3.1016-6.1992-6.6016v-31c0-3.6992 3-6.6992 6.6992-6.6992h46.398c3.6992 0 6.6992 3 6.6992 6.6992v30.898c0 3.6992-3 6.6992-6.6992 6.6992l-30.699 0.003906zm0.5-59.5c-3.0977 0-5.6992 2.6016-5.6992 5.6992v30.898c0 3.1016 2.6016 5.6992 5.6992 5.6992h0.5v14.801l14.801-14.801h31.102c3.1016 0 5.6992-2.6016 5.6992-5.6992v-30.898c0-3.1016-2.6016-5.6992-5.6992-5.6992z"/>
  <path d="m6.1992 94.5v-16.199c-3.5-0.19922-6.1992-3.1016-6.1992-6.6016v-31c0-3.6992 3-6.6992 6.6992-6.6992h46.398c3.6992 0 6.6992 3 6.6992 6.6992v30.898c0 3.6992-3 6.6992-6.6992 6.6992l-30.699 0.003906zm0.5-59.5c-3.0977 0-5.6992 2.6016-5.6992 5.6992v30.898c0 3.1016 2.6016 5.6992 5.6992 5.6992h0.5v14.801l14.801-14.801h31.102c3.1016 0 5.6992-2.6016 5.6992-5.6992v-30.898c0-3.1016-2.6016-5.6992-5.6992-5.6992z"/>
  <path d="m93.801 66.699l-16.199-16.199h-13.801v-1h14.301l14.801 14.801-0.003906-14.801h0.5c3.1016 0 5.6992-2.6016 5.6992-5.6992l0.003906-30.902c0-3.1016-2.6016-5.6992-5.6992-5.6992h-46.504c-3.1016 0-5.6992 2.6016-5.6992 5.6992v17h-1v-17c0-3.6992 3-6.6992 6.6992-6.6992h46.398c3.6992 0 6.6992 3 6.6992 6.6992v30.898c0 3.5-2.6992 6.3984-6.1992 6.6992z"/>
  <path d="m40.699 69.102l-9.8008-26v-0.10156s0-0.10156-0.10156-0.10156l-0.10156-0.10156h-0.10156-0.10156-0.10156-0.10156s-0.10156 0-0.10156 0.10156h-0.10156l-0.10156 0.10156v0.10156l-9.8008 26c-0.10156 0.30078 0 0.5 0.30078 0.60156h0.19922c0.19922 0 0.39844-0.10156 0.5-0.30078l3-8h12.602l3 8c0.10156 0.19922 0.30078 0.30078 0.5 0.30078h0.19922c0.21484-0.10156 0.31641-0.40234 0.21484-0.60156zm-16.199-8.7031l5.8984-15.699 5.8984 15.699z"/>
  <path d="m80.898 18.602h-11.098v-2.5c0-0.30078-0.19922-0.5-0.5-0.5s-0.5 0.19922-0.5 0.5v2.5h-11.102c-0.30078 0-0.5 0.19922-0.5 0.5 0 0.30078 0.19922 0.5 0.5 0.5h17.5c-0.10156 1.6992-1.1992 7.5-5.8984 13-2.8008-3.3008-4.3008-6.6992-5.1016-9-0.10156-0.30078-0.39844-0.39844-0.60156-0.30078-0.30078 0.10156-0.39844 0.39844-0.30078 0.60156 0.80078 2.5 2.3984 6 5.3008 9.5-1.3984 1.6016-3.1992 3.1016-5.3008 4.5-0.19922 0.19922-0.30078 0.5-0.10156 0.69922 0.10156 0.10156 0.30078 0.19922 0.39844 0.19922 0.10156 0 0.19922 0 0.30078-0.10156 2.1016-1.3984 3.8984-3 5.3984-4.6016 2.5 2.6992 6 5.3984 10.602 7.3984h0.19922c0.19922 0 0.39844-0.10156 0.5-0.30078 0.10156-0.30078 0-0.5-0.30078-0.69922-4.6016-1.8984-7.8984-4.5-10.398-7.1992 4.8008-5.6016 6.1992-11.602 6.3008-13.699h4.6992c0.30078 0 0.5-0.19922 0.5-0.5 0.003907-0.29688-0.19531-0.49609-0.49609-0.49609z"/>
 </g>
</svg>
