<?xml version="1.0" encoding="UTF-8" standalone="no"?>
<!-- Created with Inkscape (http://www.inkscape.org/) -->

<svg
   xmlns:dc="http://purl.org/dc/elements/1.1/"
   xmlns:cc="http://creativecommons.org/ns#"
   xmlns:rdf="http://www.w3.org/1999/02/22-rdf-syntax-ns#"
   xmlns:svg="http://www.w3.org/2000/svg"
   xmlns="http://www.w3.org/2000/svg"
   xmlns:sodipodi="http://sodipodi.sourceforge.net/DTD/sodipodi-0.dtd"
   xmlns:inkscape="http://www.inkscape.org/namespaces/inkscape"
   width="374.767"
   height="388.11996"
   viewBox="0 0 99.157099 102.69008"
   version="1.1"
   id="svg8"
   inkscape:version="0.92.2 5c3e80d, 2017-08-06"
   sodipodi:docname="distribution.svg">
  <defs
     id="defs2">
    <clipPath
       clipPathUnits="userSpaceOnUse"
       id="clipPath928">
      <rect
         ry="35.271599"
         rx="35.271599"
         y="36.632778"
         x="79.439369"
         height="99.156998"
         width="99.156998"
         id="rect930"
         style="opacity:1;vector-effect:none;fill:#f0f4f7;fill-opacity:1;stroke:none;stroke-width:5.29166698;stroke-linecap:round;stroke-linejoin:miter;stroke-miterlimit:4;stroke-dasharray:none;stroke-dashoffset:0;stroke-opacity:1;paint-order:normal"
         transform="scale(-1,1)" />
    </clipPath>
    <clipPath
       clipPathUnits="userSpaceOnUse"
       id="clipPath863">
      <rect
         style="opacity:1;vector-effect:none;fill:#f0f4f7;fill-opacity:1;stroke:none;stroke-width:5.29166698;stroke-linecap:round;stroke-linejoin:miter;stroke-miterlimit:4;stroke-dasharray:none;stroke-dashoffset:0;stroke-opacity:1;paint-order:normal"
         id="rect866"
         width="99.157104"
         height="99.156998"
         x="21.70915"
         y="66.834236"
         rx="35.271599"
         ry="35.271599"
         transform="scale(-1,1)" />
    </clipPath>
    <clipPath
       clipPathUnits="userSpaceOnUse"
       id="clipPath1016">
      <path
         style="opacity:1;vector-effect:none;fill:#f0f4f7;fill-opacity:1;stroke:none;stroke-width:5.29166698;stroke-linecap:round;stroke-linejoin:miter;stroke-miterlimit:4;stroke-dasharray:none;stroke-dashoffset:0;stroke-opacity:1;paint-order:normal"
         d="m -236.921,38.602797 h -24.65136 c -16.83449,0 -30.38719,13.552685 -30.38719,30.387188 v 24.651361 c 0,16.834494 13.5527,30.387184 30.38719,30.387184 h 24.65136 c 16.83451,0 30.38719,-13.55269 30.38719,-30.387184 V 68.989985 c 0,-16.834503 -13.55268,-30.387188 -30.38719,-30.387188 z"
         id="path1018"
         inkscape:connector-curvature="0" />
    </clipPath>
    <clipPath
       clipPathUnits="userSpaceOnUse"
       id="clipPath1020">
      <path
         style="opacity:1;vector-effect:none;fill:#f0f4f7;fill-opacity:1;stroke:none;stroke-width:5.29166698;stroke-linecap:round;stroke-linejoin:miter;stroke-miterlimit:4;stroke-dasharray:none;stroke-dashoffset:0;stroke-opacity:1;paint-order:normal"
         d="m -74.368778,20.385444 h -30.075052 c -20.53835,0 -37.07284,16.534489 -37.07284,37.072848 v 30.075049 c 0,20.538349 16.53449,37.072849 37.07284,37.072849 h 30.075052 c 20.538359,0 37.072848,-16.5345 37.072848,-37.072849 V 57.458292 c 0,-20.538359 -16.534489,-37.072848 -37.072848,-37.072848 z"
         id="path1022"
         inkscape:connector-curvature="0" />
    </clipPath>
    <clipPath
       clipPathUnits="userSpaceOnUse"
       id="clipPath3886">
      <path
         style="opacity:1;vector-effect:none;fill:#f0f4f7;fill-opacity:1;stroke:none;stroke-width:5.29166698;stroke-linecap:round;stroke-linejoin:miter;stroke-miterlimit:4;stroke-dasharray:none;stroke-dashoffset:0;stroke-opacity:1;paint-order:normal"
         d="m -67.91716,75.091495 h -9.917561 c -6.772734,0 -12.225157,5.45242 -12.225157,12.225158 v 9.917561 c 0,6.772736 5.452423,12.225156 12.225157,12.225156 h 9.917561 c 6.772738,0 12.225158,-5.45242 12.225158,-12.225156 v -9.917561 c 0,-6.772738 -5.45242,-12.225158 -12.225158,-12.225158 z"
         id="path3888"
         inkscape:connector-curvature="0" />
    </clipPath>
    <clipPath
       clipPathUnits="userSpaceOnUse"
       id="clipPath3893">
      <path
         style="opacity:1;vector-effect:none;fill:#f0f4f7;fill-opacity:1;stroke:none;stroke-width:5.29166698;stroke-linecap:round;stroke-linejoin:miter;stroke-miterlimit:4;stroke-dasharray:none;stroke-dashoffset:0;stroke-opacity:1;paint-order:normal"
         d="m 114.71097,36.632778 h 28.6138 c 19.54046,0 35.2716,15.731133 35.2716,35.2716 v 28.613802 c 0,19.54046 -15.73114,35.2716 -35.2716,35.2716 h -28.6138 c -19.540468,0 -35.271601,-15.73114 -35.271601,-35.2716 V 71.904378 c 0,-19.540467 15.731133,-35.2716 35.271601,-35.2716 z"
         id="path3895"
         inkscape:connector-curvature="0" />
    </clipPath>
  </defs>
  <sodipodi:namedview
     id="base"
     pagecolor="#ffffff"
     bordercolor="#666666"
     borderopacity="1.0"
     inkscape:pageopacity="0.0"
     inkscape:pageshadow="2"
     inkscape:zoom="0.9899495"
     inkscape:cx="-26.582178"
     inkscape:cy="316.77991"
     inkscape:document-units="px"
     inkscape:current-layer="g1190"
     showgrid="false"
     inkscape:window-width="1920"
     inkscape:window-height="1149"
     inkscape:window-x="0"
     inkscape:window-y="24"
     inkscape:window-maximized="1"
     units="px"
     inkscape:snap-global="false"
     showguides="false" />
  <metadata
     id="metadata5">
    <rdf:RDF>
      <cc:Work
         rdf:about="">
        <dc:format>image/svg+xml</dc:format>
        <dc:type
           rdf:resource="http://purl.org/dc/dcmitype/StillImage" />
        <dc:title />
      </cc:Work>
    </rdf:RDF>
  </metadata>
  <g
     inkscape:label="Layer 1"
     inkscape:groupmode="layer"
     id="layer1"
     transform="translate(147.74731,-43.790478)">
    <g
       id="g1190"
       transform="matrix(-1,0,0,1,-227.18668,10.690781)">
      <rect
         style="opacity:1;vector-effect:none;fill:#f0f4f7;fill-opacity:1;stroke:none;stroke-width:5.29166698;stroke-linecap:round;stroke-linejoin:miter;stroke-miterlimit:4;stroke-dasharray:none;stroke-dashoffset:0;stroke-opacity:1;paint-order:normal"
         id="rect902"
         width="99.156998"
         height="99.156998"
         x="79.439369"
         y="36.632778"
         transform="scale(-1,1)"
         rx="35.271599"
         ry="35.271599" />
      <g
         id="g936"
         transform="matrix(1.1607392,0,0,1.1607392,160.29252,-8.1750014)"
         style="stroke-width:0.86151993"
         clip-path="url(#clipPath1016)" />
      <g
         id="g3881"
         transform="translate(0.4009043,-1.0133993)">
        <path
           inkscape:connector-curvature="0"
           id="rect5778"
           d="m -84.681768,103.05125 c 0.386831,0 0.697287,0.3118 0.697287,0.69863 0,0.38683 -0.310456,0.6973 -0.697287,0.6973 h -12.294974 c -0.38683,0 -0.69862,-0.31047 -0.69862,-0.6973 0,-0.38683 0.31179,-0.69863 0.69862,-0.69863 z m -0.10217,1.73461 c 0.437292,0 0.788941,0.35164 0.788941,0.78892 v 8.3649 c 0,0.43729 -0.351649,0.78894 -0.788941,0.78894 h -12.091764 c -0.43728,0 -0.78894,-0.35165 -0.78894,-0.78894 v -8.3649 c 0,-0.43728 0.35166,-0.78892 0.78894,-0.78892 z m -2.584639,2.05735 h -0.304147 c -0.386843,0 -0.697299,0.25109 -0.697299,0.56314 v 4.70178 c -1.3e-5,0.31205 0.310456,0.56314 0.697299,0.56314 h 0.304147 c 0.386844,0 0.698624,-0.25109 0.698624,-0.56314 v -4.70178 c -1.3e-5,-0.31205 -0.31178,-0.56314 -0.698624,-0.56314 z m -3.309824,0 h -0.302836 c -0.386843,0 -0.698624,0.25109 -0.698624,0.56314 v 4.70178 c 0,0.31205 0.311781,0.56314 0.698624,0.56314 h 0.302836 c 0.386844,0 0.698611,-0.25109 0.698611,-0.56314 v -4.70178 c 0,-0.31205 -0.311767,-0.56314 -0.698611,-0.56314 z m -3.3085,0 h -0.30416 c -0.386818,0 -0.697287,0.25109 -0.697287,0.56314 v 4.70178 c 0,0.31205 0.310469,0.56314 0.697287,0.56314 h 0.30416 c 0.38683,0 0.698624,-0.25109 0.698624,-0.56314 v -4.70178 c 0,-0.31205 -0.311794,-0.56314 -0.698624,-0.56314 z"
           style="display:inline;opacity:1;vector-effect:none;fill:#8D99A6;fill-opacity:1;stroke:none;stroke-width:1;stroke-linecap:butt;stroke-linejoin:miter;stroke-miterlimit:4;stroke-dasharray:none;stroke-dashoffset:0;stroke-opacity:1;paint-order:normal" />
        <path
           style="display:inline;opacity:1;vector-effect:none;fill:#8D99A6;fill-opacity:1;stroke:none;stroke-width:1;stroke-linecap:butt;stroke-linejoin:miter;stroke-miterlimit:4;stroke-dasharray:none;stroke-dashoffset:0;stroke-opacity:1;paint-order:normal"
           d="m -101.24152,103.05125 c 0.38683,0 0.69728,0.3118 0.69728,0.69863 0,0.38683 -0.31045,0.6973 -0.69728,0.6973 h -12.29498 c -0.38683,0 -0.69862,-0.31047 -0.69862,-0.6973 0,-0.38683 0.31179,-0.69863 0.69862,-0.69863 z m -0.10217,1.73461 c 0.43729,0 0.78894,0.35164 0.78894,0.78892 v 8.3649 c 0,0.43729 -0.35165,0.78894 -0.78894,0.78894 h -12.09177 c -0.43728,0 -0.78894,-0.35165 -0.78894,-0.78894 v -8.3649 c 0,-0.43728 0.35166,-0.78892 0.78894,-0.78892 z m -2.58464,2.05735 h -0.30415 c -0.38684,0 -0.6973,0.25109 -0.6973,0.56314 v 4.70178 c -1e-5,0.31205 0.31046,0.56314 0.6973,0.56314 h 0.30415 c 0.38684,0 0.69862,-0.25109 0.69862,-0.56314 v -4.70178 c -1e-5,-0.31205 -0.31178,-0.56314 -0.69862,-0.56314 z m -3.30983,0 h -0.30283 c -0.38685,0 -0.69863,0.25109 -0.69863,0.56314 v 4.70178 c 0,0.31205 0.31178,0.56314 0.69863,0.56314 h 0.30283 c 0.38685,0 0.69861,-0.25109 0.69861,-0.56314 v -4.70178 c 0,-0.31205 -0.31176,-0.56314 -0.69861,-0.56314 z m -3.3085,0 h -0.30416 c -0.38681,0 -0.69728,0.25109 -0.69728,0.56314 v 4.70178 c 0,0.31205 0.31047,0.56314 0.69728,0.56314 h 0.30416 c 0.38683,0 0.69863,-0.25109 0.69863,-0.56314 v -4.70178 c 0,-0.31205 -0.3118,-0.56314 -0.69863,-0.56314 z"
           id="path3734"
           inkscape:connector-curvature="0" />
        <path
           inkscape:connector-curvature="0"
           id="path3736"
           d="m -92.422715,90.685631 c 0.38683,0 0.697287,0.311793 0.697287,0.698624 0,0.386815 -0.310457,0.697295 -0.697287,0.697295 h -12.294975 c -0.38683,0 -0.69862,-0.31048 -0.69862,-0.697295 0,-0.386831 0.31179,-0.698624 0.69862,-0.698624 z m -0.10217,1.734599 c 0.437292,0 0.788941,0.35165 0.788941,0.78893 v 8.3649 c 0,0.43729 -0.351649,0.78894 -0.788941,0.78894 h -12.091775 c -0.43727,0 -0.78894,-0.35165 -0.78894,-0.78894 v -8.3649 c 0,-0.43728 0.35167,-0.78893 0.78894,-0.78893 z m -2.584639,2.05736 h -0.304147 c -0.386843,0 -0.697301,0.25109 -0.697301,0.56314 v 4.70178 c -2e-5,0.31205 0.310458,0.56314 0.697301,0.56314 h 0.304147 c 0.386844,0 0.698611,-0.25109 0.698611,-0.56314 v -4.70178 c -1.3e-5,-0.31205 -0.311767,-0.56314 -0.698611,-0.56314 z m -3.309838,0 h -0.30282 c -0.38685,0 -0.69863,0.25109 -0.69863,0.56314 v 4.70178 c 0,0.31205 0.31178,0.56314 0.69863,0.56314 h 0.30282 c 0.38684,0 0.69862,-0.25109 0.69862,-0.56314 v -4.70178 c 0,-0.31205 -0.31178,-0.56314 -0.69862,-0.56314 z m -3.308488,0 h -0.30417 c -0.38681,0 -0.69729,0.25109 -0.69729,0.56314 v 4.70178 c 0,0.31205 0.31048,0.56314 0.69729,0.56314 h 0.30417 c 0.38683,0 0.69861,-0.25109 0.69861,-0.56314 v -4.70178 c 0,-0.31205 -0.31178,-0.56314 -0.69861,-0.56314 z"
           style="display:inline;opacity:1;vector-effect:none;fill:#8D99A6;fill-opacity:1;stroke:none;stroke-width:1;stroke-linecap:butt;stroke-linejoin:miter;stroke-miterlimit:4;stroke-dasharray:none;stroke-dashoffset:0;stroke-opacity:1;paint-order:normal" />
      </g>
      <g
         id="g3838"
         transform="matrix(2.8851652,0,0,2.8851652,81.241256,-180.01859)"
         style="stroke-width:0.34660059"
         clip-path="url(#clipPath3886)">
        <path
           inkscape:connector-curvature="0"
           id="rect3577"
           d="M -80.692594,84.136406 H -115.0684 v 12.064885 h 34.375806 z"
           style="opacity:1;vector-effect:none;fill:#8D99A6;fill-opacity:1;stroke:none;stroke-width:0.07566868;stroke-linecap:round;stroke-linejoin:miter;stroke-miterlimit:4;stroke-dasharray:0.30267478, 0.15133738999999999, 0.07566870000000001, 0.15133738999999999;stroke-dashoffset:0;stroke-opacity:1;paint-order:stroke markers fill" />
        <path
           inkscape:connector-curvature="0"
           id="rect3481"
           d="M -82.028778,84.871397 H -113.3456 v 9.960138 h 31.316822 z"
           style="opacity:1;vector-effect:none;fill:#f0f4f7;fill-opacity:1;stroke:none;stroke-width:0.0753838;stroke-linecap:round;stroke-linejoin:miter;stroke-miterlimit:4;stroke-dasharray:0.30153519, 0.1507676, 0.07538379, 0.1507676;stroke-dashoffset:0;stroke-opacity:1;paint-order:stroke markers fill" />
        <path
           id="rect3483"
           transform="matrix(-0.26458334,0,0,0.26458334,-79.43937,33.099697)"
           d="m 4.7011719,190.08008 v 3.9043 h 4.3867187 v 42.28515 H 4.7011719 v 3.9043 H 134.68164 v -3.9043 h -4.83203 v -42.28515 h 4.83203 v -3.9043 z m 7.1074221,3.9043 h 2.412109 v 42.28515 h -2.412109 z m 5.130859,0 h 2.414063 v 42.28515 h -2.414063 z m 5.132813,0 h 2.412109 v 42.28515 h -2.412109 z m 5.132812,0 h 2.41211 v 42.28515 h -2.41211 z m 5.13086,0 H 34.75 v 42.28515 h -2.414062 z m 5.132812,0 h 2.412109 v 42.28515 H 37.46875 Z m 5.132812,0 h 2.41211 v 42.28515 h -2.41211 z m 5.13086,0 h 2.414062 v 42.28515 h -2.414062 z m 5.132812,0 h 2.41211 v 42.28515 h -2.41211 z m 5.132813,0 h 2.412109 v 42.28515 h -2.412109 z m 5.132812,0 h 2.41211 v 42.28515 h -2.41211 z m 5.13086,0 h 2.414062 v 42.28515 h -2.414062 z m 5.132812,0 h 2.41211 v 42.28515 h -2.41211 z m 5.132813,0 h 2.412109 v 42.28515 h -2.412109 z m 5.130859,0 h 2.414063 v 42.28515 h -2.414063 z m 5.132813,0 h 2.412109 v 42.28515 h -2.412109 z m 5.132812,0 h 2.41211 v 42.28515 h -2.41211 z m 5.13086,0 h 2.414062 v 42.28515 h -2.414062 z m 5.132812,0 h 2.41211 v 42.28515 h -2.41211 z m 5.13281,0 h 2.41211 v 42.28515 h -2.41211 z m 5.13281,0 h 2.41211 v 42.28515 h -2.41211 z m 5.13086,0 h 2.41407 v 42.28515 h -2.41407 z m 5.13282,0 h 2.41211 v 42.28515 h -2.41211 z"
           style="opacity:1;vector-effect:none;fill:#8D99A6;fill-opacity:1;stroke:none;stroke-width:0.28491515;stroke-linecap:round;stroke-linejoin:miter;stroke-miterlimit:4;stroke-dasharray:1.13966055, 0.56983026999999997, 0.28491514000000001, 0.56983026999999997;stroke-dashoffset:0;stroke-opacity:1;paint-order:stroke markers fill"
           inkscape:connector-curvature="0" />
        <path
           inkscape:connector-curvature="0"
           id="rect3535"
           d="m -69.518006,97.061413 h -45.545984 c -0.32379,0 -0.58446,0.21824 -0.58446,0.489328 v 1.083513 c 0,0.271087 0.26067,0.489329 0.58446,0.489329 h 45.545984 c 0.32379,0 0.584459,-0.218242 0.584459,-0.489329 v -1.083513 c 0,-0.271088 -0.260669,-0.489328 -0.584459,-0.489328 z"
           style="opacity:1;vector-effect:none;fill:#8D99A6;fill-opacity:1;stroke:none;stroke-width:0.0753838;stroke-linecap:round;stroke-linejoin:miter;stroke-miterlimit:4;stroke-dasharray:0.30153519, 0.15076760000000000, 0.07538379000000001, 0.15076760000000000;stroke-dashoffset:0;stroke-opacity:1;paint-order:stroke markers fill" />
        <path
           id="rect3537"
           transform="matrix(-0.26458334,0,0,0.26458334,-79.43937,33.099697)"
           d="m -9.8027344,196.32812 c -1.8177636,0.0554 -2.5564986,-0.45743 -6.3164066,3.92774 l -10.748047,14.82031 c -0.179973,0.20481 -8.93164,6.17982 -8.93164,8.33985 v 7.15039 h 8.876953 c 0.218532,0 0.394531,0.31564 0.394531,0.70898 0,0.39336 -0.176006,0.71094 -0.394531,0.71094 h -8.876953 v 0.55078 h 8.876953 c 0.218532,0 0.394531,0.31759 0.394531,0.71094 0,0.39335 -0.176006,0.70898 -0.394531,0.70898 h -8.876953 v 0.5918 h 8.876953 c 0.218532,0 0.394531,0.31759 0.394531,0.71094 0,0.39335 -0.176006,0.70898 -0.394531,0.70898 h -8.876953 v 0.5918 h 8.876953 c 0.218532,0 0.394531,0.31759 0.394531,0.71093 0,0.39336 -0.176006,0.70899 -0.394531,0.70899 h -8.876953 v 1.43555 c 0,1.22378 0.985211,1.3164 2.208984,1.3164 H 0.59570312 c 1.22376948,0 2.20898438,-0.98521 2.20898438,-2.20898 v -39.98633 c 0,-1.22377 -0.9852149,-2.20897 -2.20898438,-2.20899 z m -6.4531246,7.84571 h 9.2753902 V 216.4043 H -25.158203 Z m -16.552735,18.37305 H -29.75 c 1.223773,0 2.208984,0.98521 2.208984,2.20898 v 1.94141 c 0,1.22377 -0.985211,2.20898 -2.208984,2.20898 h -3.058594 c -1.223769,0 -2.208984,-0.98521 -2.208984,-2.20898 v -1.94141 c 0,-1.22377 0.985215,-2.20899 2.208984,-2.20898 z"
           style="opacity:1;vector-effect:none;fill:#8D99A6;fill-opacity:1;stroke:none;stroke-width:0.28491515;stroke-linecap:round;stroke-linejoin:miter;stroke-miterlimit:4;stroke-dasharray:1.13966055, 0.56983026999999997, 0.28491514000000001, 0.56983026999999997;stroke-dashoffset:0;stroke-opacity:1;paint-order:stroke markers fill"
           inkscape:connector-curvature="0" />
        <g
           transform="translate(-0.30067822)"
           id="g3798"
           style="stroke-width:0.34660059">
          <path
             inkscape:connector-curvature="0"
             id="circle3605"
             d="m -78.445624,98.967025 a 3.1205886,3.1205886 0 0 0 3.120589,3.120595 3.1205886,3.1205886 0 0 0 3.120588,-3.120595 3.1205886,3.1205886 0 0 0 -3.120588,-3.120589 3.1205886,3.1205886 0 0 0 -3.120589,3.120589 z"
             style="opacity:1;vector-effect:none;fill:#8D99A6;fill-opacity:1;stroke:#f0f4f7;stroke-width:0.27511424;stroke-linecap:round;stroke-linejoin:miter;stroke-miterlimit:4;stroke-dasharray:none;stroke-dashoffset:0;stroke-opacity:1;paint-order:stroke markers fill" />
          <path
             inkscape:connector-curvature="0"
             id="circle3607"
             d="m -76.606838,98.967027 a 1.2818023,1.2818023 0 0 0 1.281803,1.281803 1.2818023,1.2818023 0 0 0 1.281802,-1.281803 1.2818023,1.2818023 0 0 0 -1.281802,-1.281802 1.2818023,1.2818023 0 0 0 -1.281803,1.281802 z"
             style="opacity:1;vector-effect:none;fill:#f0f4f7;fill-opacity:1;stroke:none;stroke-width:0.0753838;stroke-linecap:round;stroke-linejoin:miter;stroke-miterlimit:4;stroke-dasharray:0.30153518, 0.15076759, 0.07538379, 0.15076759;stroke-dashoffset:0;stroke-opacity:1;paint-order:stroke markers fill" />
        </g>
        <g
           transform="translate(-8.9535293)"
           id="g3806"
           style="stroke-width:0.34660059">
          <path
             style="opacity:1;vector-effect:none;fill:#8D99A6;fill-opacity:1;stroke:#f0f4f7;stroke-width:0.27511424;stroke-linecap:round;stroke-linejoin:miter;stroke-miterlimit:4;stroke-dasharray:none;stroke-dashoffset:0;stroke-opacity:1;paint-order:stroke markers fill"
             d="m -78.445624,98.967025 a 3.1205886,3.1205886 0 0 0 3.120589,3.120595 3.1205886,3.1205886 0 0 0 3.120588,-3.120595 3.1205886,3.1205886 0 0 0 -3.120588,-3.120589 3.1205886,3.1205886 0 0 0 -3.120589,3.120589 z"
             id="path3802"
             inkscape:connector-curvature="0" />
          <path
             style="opacity:1;vector-effect:none;fill:#f0f4f7;fill-opacity:1;stroke:none;stroke-width:0.0753838;stroke-linecap:round;stroke-linejoin:miter;stroke-miterlimit:4;stroke-dasharray:0.30153518, 0.15076759, 0.07538379, 0.15076759;stroke-dashoffset:0;stroke-opacity:1;paint-order:stroke markers fill"
             d="m -76.606838,98.967027 a 1.2818023,1.2818023 0 0 0 1.281803,1.281803 1.2818023,1.2818023 0 0 0 1.281802,-1.281803 1.2818023,1.2818023 0 0 0 -1.281802,-1.281802 1.2818023,1.2818023 0 0 0 -1.281803,1.281802 z"
             id="path3804"
             inkscape:connector-curvature="0" />
        </g>
        <g
           id="g3812"
           transform="translate(-25.991961)"
           style="stroke-width:0.34660059">
          <path
             inkscape:connector-curvature="0"
             id="path3808"
             d="m -78.445624,98.967025 a 3.1205886,3.1205886 0 0 0 3.120589,3.120595 3.1205886,3.1205886 0 0 0 3.120588,-3.120595 3.1205886,3.1205886 0 0 0 -3.120588,-3.120589 3.1205886,3.1205886 0 0 0 -3.120589,3.120589 z"
             style="opacity:1;vector-effect:none;fill:#8D99A6;fill-opacity:1;stroke:#f0f4f7;stroke-width:0.27511424;stroke-linecap:round;stroke-linejoin:miter;stroke-miterlimit:4;stroke-dasharray:none;stroke-dashoffset:0;stroke-opacity:1;paint-order:stroke markers fill" />
          <path
             inkscape:connector-curvature="0"
             id="path3810"
             d="m -76.606838,98.967027 a 1.2818023,1.2818023 0 0 0 1.281803,1.281803 1.2818023,1.2818023 0 0 0 1.281802,-1.281803 1.2818023,1.2818023 0 0 0 -1.281802,-1.281802 1.2818023,1.2818023 0 0 0 -1.281803,1.281802 z"
             style="opacity:1;vector-effect:none;fill:#f0f4f7;fill-opacity:1;stroke:none;stroke-width:0.0753838;stroke-linecap:round;stroke-linejoin:miter;stroke-miterlimit:4;stroke-dasharray:0.30153518, 0.15076759, 0.07538379, 0.15076759;stroke-dashoffset:0;stroke-opacity:1;paint-order:stroke markers fill" />
        </g>
        <g
           transform="translate(-34.310725)"
           id="g3818"
           style="stroke-width:0.34660059">
          <path
             style="opacity:1;vector-effect:none;fill:#8D99A6;fill-opacity:1;stroke:#f0f4f7;stroke-width:0.27511424;stroke-linecap:round;stroke-linejoin:miter;stroke-miterlimit:4;stroke-dasharray:none;stroke-dashoffset:0;stroke-opacity:1;paint-order:stroke markers fill"
             d="m -78.445624,98.967025 a 3.1205886,3.1205886 0 0 0 3.120589,3.120595 3.1205886,3.1205886 0 0 0 3.120588,-3.120595 3.1205886,3.1205886 0 0 0 -3.120588,-3.120589 3.1205886,3.1205886 0 0 0 -3.120589,3.120589 z"
             id="path3814"
             inkscape:connector-curvature="0" />
          <path
             style="opacity:1;vector-effect:none;fill:#f0f4f7;fill-opacity:1;stroke:none;stroke-width:0.0753838;stroke-linecap:round;stroke-linejoin:miter;stroke-miterlimit:4;stroke-dasharray:0.30153518, 0.15076759, 0.07538379, 0.15076759;stroke-dashoffset:0;stroke-opacity:1;paint-order:stroke markers fill"
             d="m -76.606838,98.967027 a 1.2818023,1.2818023 0 0 0 1.281803,1.281803 1.2818023,1.2818023 0 0 0 1.281802,-1.281803 1.2818023,1.2818023 0 0 0 -1.281802,-1.281802 1.2818023,1.2818023 0 0 0 -1.281803,1.281802 z"
             id="path3816"
             inkscape:connector-curvature="0" />
        </g>
      </g>
      <rect
         style="opacity:1;vector-effect:none;fill:#8D99A6;fill-opacity:1;stroke:#f0f4f7;stroke-width:0.79375005;stroke-linecap:butt;stroke-linejoin:miter;stroke-miterlimit:4;stroke-dasharray:none;stroke-dashoffset:0;stroke-opacity:1;paint-order:normal"
         id="rect3876"
         width="118.66767"
         height="35.279579"
         x="79.172104"
         y="115.74456"
         transform="scale(-1,1)"
         clip-path="url(#clipPath3893)" />
    </g>
  </g>
</svg>
