<?xml version="1.0" encoding="UTF-8" standalone="no"?>
<!-- Created with Inkscape (http://www.inkscape.org/) -->

<svg
   xmlns:dc="http://purl.org/dc/elements/1.1/"
   xmlns:cc="http://creativecommons.org/ns#"
   xmlns:rdf="http://www.w3.org/1999/02/22-rdf-syntax-ns#"
   xmlns:svg="http://www.w3.org/2000/svg"
   xmlns="http://www.w3.org/2000/svg"
   xmlns:sodipodi="http://sodipodi.sourceforge.net/DTD/sodipodi-0.dtd"
   xmlns:inkscape="http://www.inkscape.org/namespaces/inkscape"
   width="374.7666"
   height="374.7666"
   viewBox="0 0 99.156994 99.157002"
   version="1.1"
   id="svg8"
   inkscape:version="0.92.2 5c3e80d, 2017-08-06"
   sodipodi:docname="education.svg">
  <defs
     id="defs2">
    <clipPath
       clipPathUnits="userSpaceOnUse"
       id="clipPath928">
      <rect
         ry="35.271599"
         rx="35.271599"
         y="36.632778"
         x="79.439369"
         height="99.156998"
         width="99.156998"
         id="rect930"
         style="opacity:1;vector-effect:none;fill:#f0f4f7;fill-opacity:1;stroke:none;stroke-width:5.29166698;stroke-linecap:round;stroke-linejoin:miter;stroke-miterlimit:4;stroke-dasharray:none;stroke-dashoffset:0;stroke-opacity:1;paint-order:normal"
         transform="scale(-1,1)" />
    </clipPath>
    <clipPath
       clipPathUnits="userSpaceOnUse"
       id="clipPath863">
      <rect
         style="opacity:1;vector-effect:none;fill:#f0f4f7;fill-opacity:1;stroke:none;stroke-width:5.29166698;stroke-linecap:round;stroke-linejoin:miter;stroke-miterlimit:4;stroke-dasharray:none;stroke-dashoffset:0;stroke-opacity:1;paint-order:normal"
         id="rect866"
         width="99.157104"
         height="99.156998"
         x="21.70915"
         y="66.834236"
         rx="35.271599"
         ry="35.271599"
         transform="scale(-1,1)" />
    </clipPath>
    <clipPath
       clipPathUnits="userSpaceOnUse"
       id="clipPath1016">
      <path
         style="opacity:1;vector-effect:none;fill:#f0f4f7;fill-opacity:1;stroke:none;stroke-width:5.29166698;stroke-linecap:round;stroke-linejoin:miter;stroke-miterlimit:4;stroke-dasharray:none;stroke-dashoffset:0;stroke-opacity:1;paint-order:normal"
         d="m -236.921,38.602797 h -24.65136 c -16.83449,0 -30.38719,13.552685 -30.38719,30.387188 v 24.651361 c 0,16.834494 13.5527,30.387184 30.38719,30.387184 h 24.65136 c 16.83451,0 30.38719,-13.55269 30.38719,-30.387184 V 68.989985 c 0,-16.834503 -13.55268,-30.387188 -30.38719,-30.387188 z"
         id="path1018"
         inkscape:connector-curvature="0" />
    </clipPath>
    <clipPath
       clipPathUnits="userSpaceOnUse"
       id="clipPath1020">
      <path
         style="opacity:1;vector-effect:none;fill:#f0f4f7;fill-opacity:1;stroke:none;stroke-width:5.29166698;stroke-linecap:round;stroke-linejoin:miter;stroke-miterlimit:4;stroke-dasharray:none;stroke-dashoffset:0;stroke-opacity:1;paint-order:normal"
         d="m -74.368778,20.385444 h -30.075052 c -20.53835,0 -37.07284,16.534489 -37.07284,37.072848 v 30.075049 c 0,20.538349 16.53449,37.072849 37.07284,37.072849 h 30.075052 c 20.538359,0 37.072848,-16.5345 37.072848,-37.072849 V 57.458292 c 0,-20.538359 -16.534489,-37.072848 -37.072848,-37.072848 z"
         id="path1022"
         inkscape:connector-curvature="0" />
    </clipPath>
    <clipPath
       clipPathUnits="userSpaceOnUse"
       id="clipPath3886">
      <path
         style="opacity:1;vector-effect:none;fill:#f0f4f7;fill-opacity:1;stroke:none;stroke-width:5.29166698;stroke-linecap:round;stroke-linejoin:miter;stroke-miterlimit:4;stroke-dasharray:none;stroke-dashoffset:0;stroke-opacity:1;paint-order:normal"
         d="m -67.91716,75.091495 h -9.917561 c -6.772734,0 -12.225157,5.45242 -12.225157,12.225158 v 9.917561 c 0,6.772736 5.452423,12.225156 12.225157,12.225156 h 9.917561 c 6.772738,0 12.225158,-5.45242 12.225158,-12.225156 v -9.917561 c 0,-6.772738 -5.45242,-12.225158 -12.225158,-12.225158 z"
         id="path3888"
         inkscape:connector-curvature="0" />
    </clipPath>
    <clipPath
       clipPathUnits="userSpaceOnUse"
       id="clipPath3893">
      <path
         style="opacity:1;vector-effect:none;fill:#f0f4f7;fill-opacity:1;stroke:none;stroke-width:5.29166698;stroke-linecap:round;stroke-linejoin:miter;stroke-miterlimit:4;stroke-dasharray:none;stroke-dashoffset:0;stroke-opacity:1;paint-order:normal"
         d="m 114.71097,36.632778 h 28.6138 c 19.54046,0 35.2716,15.731133 35.2716,35.2716 v 28.613802 c 0,19.54046 -15.73114,35.2716 -35.2716,35.2716 h -28.6138 c -19.540468,0 -35.271601,-15.73114 -35.271601,-35.2716 V 71.904378 c 0,-19.540467 15.731133,-35.2716 35.271601,-35.2716 z"
         id="path3895"
         inkscape:connector-curvature="0" />
    </clipPath>
  </defs>
  <sodipodi:namedview
     id="base"
     pagecolor="#ffffff"
     bordercolor="#666666"
     borderopacity="1.0"
     inkscape:pageopacity="0.0"
     inkscape:pageshadow="2"
     inkscape:zoom="1.4"
     inkscape:cx="69.824956"
     inkscape:cy="188.30572"
     inkscape:document-units="px"
     inkscape:current-layer="g1190"
     showgrid="false"
     inkscape:window-width="1920"
     inkscape:window-height="1149"
     inkscape:window-x="0"
     inkscape:window-y="24"
     inkscape:window-maximized="1"
     units="px"
     inkscape:snap-global="false"
     showguides="false" />
  <metadata
     id="metadata5">
    <rdf:RDF>
      <cc:Work
         rdf:about="">
        <dc:format>image/svg+xml</dc:format>
        <dc:type
           rdf:resource="http://purl.org/dc/dcmitype/StillImage" />
        <dc:title />
      </cc:Work>
    </rdf:RDF>
  </metadata>
  <g
     inkscape:label="Layer 1"
     inkscape:groupmode="layer"
     id="layer1"
     transform="translate(147.74731,-47.323559)">
    <g
       id="g1190"
       transform="matrix(-1,0,0,1,-227.18668,10.690781)">
      <rect
         style="opacity:1;vector-effect:none;fill:#f0f4f7;fill-opacity:1;stroke:none;stroke-width:5.29166698;stroke-linecap:round;stroke-linejoin:miter;stroke-miterlimit:4;stroke-dasharray:none;stroke-dashoffset:0;stroke-opacity:1;paint-order:normal"
         id="rect902"
         width="99.156998"
         height="99.156998"
         x="79.439369"
         y="36.632778"
         transform="scale(-1,1)"
         rx="35.271599"
         ry="35.271599" />
      <g
         id="g936"
         transform="matrix(1.1607392,0,0,1.1607392,160.29252,-8.1750014)"
         style="stroke-width:0.86151993"
         clip-path="url(#clipPath1016)" />
      <g
         id="g3929"
         transform="translate(-0.06681071,-1.3046702)">
        <path
           sodipodi:nodetypes="sssssssss"
           inkscape:connector-curvature="0"
           id="rect3918"
           d="m -106.34263,78.383762 h -45.21687 c -0.65681,0 -1.18558,0.530905 -1.18558,1.190371 v 25.866817 c 0,0.65948 0.58434,0.92491 1.18558,1.19038 15.0723,6.65491 30.14458,6.96656 45.21687,0 0.59662,-0.27576 1.18557,-0.5309 1.18557,-1.19038 V 79.574133 c 0,-0.659466 -0.52877,-1.190371 -1.18557,-1.190371 z"
           style="opacity:1;vector-effect:none;fill:#8D99A6;fill-opacity:1;stroke:#f0f4f7;stroke-width:0.79375005;stroke-linecap:butt;stroke-linejoin:miter;stroke-miterlimit:4;stroke-dasharray:none;stroke-dashoffset:0;stroke-opacity:1;paint-order:normal" />
        <rect
           ry="1.0587113"
           rx="1.0587113"
           transform="matrix(-0.93473874,-0.35533574,-0.93473874,0.35533574,0,0)"
           y="158.88217"
           x="-68.474113"
           height="47.546059"
           width="47.546059"
           id="rect3916"
           style="opacity:1;vector-effect:none;fill:#8D99A6;fill-opacity:1;stroke:#f0f4f7;stroke-width:4.86938572;stroke-linecap:butt;stroke-linejoin:miter;stroke-miterlimit:4;stroke-dasharray:none;stroke-dashoffset:0;stroke-opacity:1;paint-order:normal" />
        <path
           inkscape:connector-curvature="0"
           id="path3921"
           d="m -115.78185,76.280004 c 0.59859,0.450756 18.256976,8.11404 18.256976,8.11404 l 0.67475,8.337734 a 3.7411959,3.305566 0 0 1 1.71928,2.780795 3.7411959,3.305566 0 0 1 -1.29221,2.49609 l 0.84373,10.425957 c -2.83218,3.1106 -4.469156,1.41983 -6.135816,-0.15049 l 0.42013,-10.258034 a 3.7411959,3.305566 0 0 1 -1.31825,-2.513523 3.7411959,3.305566 0 0 1 1.53005,-2.661105 l 0.26619,-6.504014 z"
           style="fill:#8D99A6;fill-opacity:1;stroke:#f0f4f7;stroke-width:1.32291663;stroke-linecap:butt;stroke-linejoin:miter;stroke-miterlimit:4;stroke-dasharray:none;stroke-opacity:1" />
      </g>
    </g>
  </g>
</svg>
