<?xml version="1.0" encoding="UTF-8"?>
<svg width="512px" height="512px" viewBox="0 0 512 512" version="1.1" xmlns="http://www.w3.org/2000/svg" xmlns:xlink="http://www.w3.org/1999/xlink">
    <!-- Generator: Sketch 42 (36781) - http://www.bohemiancoding.com/sketch -->
    <title>erp-icon</title>
    <desc>Created with Sketch.</desc>
    <defs></defs>
    <g id="Page-1" stroke="none" stroke-width="1" fill="none" fill-rule="evenodd">
        <g id="erp-icon" fill-rule="nonzero">
            <path d="M512,448 C512,483.2 483.2,512 448,512 L64,512 C28.8,512 0,483.2 0,448 L0,64 C0,28.8 28.8,0 64,0 L448,0 C483.2,0 512,28.8 512,64 L512,448 Z" id="Shape" fill="#70E078"></path>
            <path d="M150.483,371.684 L150.483,141.15 C150.483,125.983 160.017,116.017 174.316,116.017 L336.816,116.017 C350.682,116.017 357.616,122.95 357.616,134.65 L357.616,137.25 C357.616,149.383 350.682,155.883 336.816,155.883 L195.116,155.883 L195.116,234.317 L304.75,234.317 C319.05,234.317 325.55,240.383 325.55,252.084 L325.55,253.384 C325.55,265.517 318.616,272.017 304.75,272.017 L195.117,272.017 L195.117,356.951 L339.417,356.951 C353.284,356.951 359.784,363.017 359.784,374.718 L359.784,376.885 C359.784,389.451 353.284,396.385 339.417,396.385 L174.317,396.385 C160.017,396.384 150.483,386.851 150.483,371.684 Z" id="Shape" fill="#FFFFFF"></path>
        </g>
    </g>
</svg>