<?xml version="1.0" encoding="UTF-8"?>
<svg width="88px" height="88px" viewBox="0 0 88 88" version="1.1" xmlns="http://www.w3.org/2000/svg" xmlns:xlink="http://www.w3.org/1999/xlink">
    <!-- Generator: Sketch 44.1 (41455) - http://www.bohemiancoding.com/sketch -->
    <title>erpnext-logo</title>
    <desc>Created with Sketch.</desc>
    <defs></defs>
    <g id="Page-1" stroke="none" stroke-width="1" fill="none" fill-rule="evenodd">
        <g id="erpnext-logo" transform="translate(-2.000000, -2.000000)">
            <g id="g1422-7-2" transform="translate(0.025630, 0.428785)" fill-rule="nonzero" fill="#FFFFFF">
                <g id="g1418-4-6" transform="translate(0.268998, 0.867736)">
                    <g id="g1416-4-9" transform="translate(0.749997, 0.000000)">
                        <path d="M14.1845844,0.703479866 L75.0387175,0.703479866 C82.3677094,0.703479866 88.2679029,6.60367875 88.2679029,13.9326374 L88.2679029,74.7868158 C88.2679029,82.1157744 82.3677094,88.0159833 75.0387175,88.0159833 L14.1845844,88.0159833 C6.85569246,88.0159833 0.955398949,82.1157744 0.955398949,74.7868158 L0.955398949,13.9326374 C0.955398949,6.60367875 6.85569246,0.703479866 14.1845844,0.703479866 L14.1845844,0.703479866 Z M30.733047,22.5314454 C30.4581979,22.5314454 30.1903602,22.5593642 29.9315447,22.6120586 C29.6727028,22.664753 29.4228833,22.7423871 29.1853403,22.8425371 C29.0665424,22.8926122 28.9510782,22.9484948 28.8385774,23.0094522 C28.6136022,23.1313616 28.4019091,23.2742763 28.2060645,23.4357806 C27.3246845,24.1625567 26.7642969,25.2634324 26.7642969,26.5001955 L26.7642969,26.7420405 L26.7642969,61.977604 L26.7642969,62.2189569 C26.7642969,64.4176445 28.5343595,66.187707 30.733047,66.187707 L58.490009,66.187707 C60.6886965,66.187707 62.4587591,64.4176445 62.4587591,62.2189569 L62.4587591,61.977604 C62.4587591,59.7789165 60.6886965,58.0088539 58.490009,58.0088539 L34.9436263,58.0088539 L34.9436263,48.1236764 L52.4510795,48.1236764 C54.649767,48.1236764 56.4198296,46.3536138 56.4198296,44.1549263 L56.4198296,43.9135998 C56.4198296,41.7149123 54.649767,39.9448497 52.4510795,39.9448497 L34.9436263,39.9448497 L34.9436263,30.7107906 L58.490009,30.7107906 C60.6886965,30.7107906 62.4587591,28.9407281 62.4587591,26.7420405 L62.4587591,26.5001955 C62.4587591,24.3015079 60.6886965,22.5314454 58.490009,22.5314454 L30.733047,22.5314454 Z" id="Combined-Shape"></path>
                    </g>
                </g>
            </g>
            <g id="g1444-6-7" transform="translate(27.708247, 23.320960)"></g>
        </g>
    </g>
</svg>