<?xml version="1.0" encoding="UTF-8" standalone="no"?>
<svg
   xmlns:dc="http://purl.org/dc/elements/1.1/"
   xmlns:cc="http://creativecommons.org/ns#"
   xmlns:rdf="http://www.w3.org/1999/02/22-rdf-syntax-ns#"
   xmlns:svg="http://www.w3.org/2000/svg"
   xmlns="http://www.w3.org/2000/svg"
   xmlns:sodipodi="http://sodipodi.sourceforge.net/DTD/sodipodi-0.dtd"
   xmlns:inkscape="http://www.inkscape.org/namespaces/inkscape"
   width="233.10893"
   height="184.52928"
   viewBox="0 0 233.10893 184.52928"
   version="1.1"
   xml:space="preserve"
   style="clip-rule:evenodd;fill-rule:evenodd;stroke-linejoin:round;stroke-miterlimit:1.41420996"
   id="svg16"
   sodipodi:docname="frappe-bird-grey.svg"
   inkscape:version="0.92.2 5c3e80d, 2017-08-06"><metadata
     id="metadata22"><rdf:RDF><cc:Work
         rdf:about=""><dc:format>image/svg+xml</dc:format><dc:type
           rdf:resource="http://purl.org/dc/dcmitype/StillImage" /></cc:Work></rdf:RDF></metadata><defs
     id="defs20" /><sodipodi:namedview
     pagecolor="#ffffff"
     bordercolor="#666666"
     borderopacity="1"
     objecttolerance="10"
     gridtolerance="10"
     guidetolerance="10"
     inkscape:pageopacity="0"
     inkscape:pageshadow="2"
     inkscape:window-width="1920"
     inkscape:window-height="1149"
     id="namedview18"
     showgrid="false"
     inkscape:zoom="1.8153846"
     inkscape:cx="135.31524"
     inkscape:cy="86.252338"
     inkscape:window-x="0"
     inkscape:window-y="24"
     inkscape:window-maximized="1"
     inkscape:current-layer="svg16" /><path
     inkscape:connector-curvature="0"
     id="path846"
     d="M 32.996565,1.9352345e-4 C 32.920595,-0.00190648 32.848004,0.01370352 32.773387,0.01707352 c -0.17861,-0.01013 -0.360732,-0.0068 -0.544372,0.02026 -0.613757,0.08981 -1.242875,0.401518 -1.814563,1.00325498 L 30.016615,1.5709865 0.53497063,40.895016 c -1.327318,1.789981 -0.08137,4.651792 2.59622497,4.349742 L 35.168988,40.67518 42.012044,88.660303 c 0.131003,0.97745 0.647283,1.71644 1.331268,2.17401 0.05571,0.52506 0.274499,1.05866 0.718863,1.53193 l 49.558917,50.417347 c 0.32211,0.31941 0.69614,0.52989 1.08699,0.65779 l 39.526398,40.21036 c 2.00898,1.88759 5.24535,0.54029 5.24485,-2.23509 l 0.65951,-80.71558 92.10383,-90.694028 c 1.85795,-1.7675625 0.48302,-4.6583425 -1.81807,-4.5835565 l -99.81928,-0.807829 c -1.05771,-0.0068 -1.66614,0.53897 -1.90703,0.76944 L 61.387877,71.666093 84.005562,41.49695 c 1.20682,-1.653272 0.51345,-3.515475 -0.6281,-4.375909 L 34.753728,0.60263852 c -0.587859,-0.401348 -1.188043,-0.585901 -1.756994,-0.60193899655 z"
     style="fill:#29344a;fill-opacity:1;stroke:none;stroke-width:0.99999988px;stroke-linecap:butt;stroke-linejoin:miter;stroke-opacity:1" /></svg>