<?xml version="1.0" encoding="UTF-8"?>
<svg width="222px" height="168px" viewBox="0 0 222 168" version="1.1" xmlns="http://www.w3.org/2000/svg" xmlns:xlink="http://www.w3.org/1999/xlink">
    <!-- Generator: Sketch 42 (36781) - http://www.bohemiancoding.com/sketch -->
    <title>Group</title>
    <desc>Created with Sketch.</desc>
    <defs></defs>
    <g id="Page-1" stroke="none" stroke-width="1" fill="none" fill-rule="evenodd">
        <g id="Group" fill-rule="nonzero">
            <path d="M39.838,4.703 L85.685,50.55" id="Shape" fill="#FF783D"></path>
            <path d="M116.07,167.331 C114.972,167.331 113.892,166.904 113.083,166.099 L37.699,91.15 C36.899,90.355 36.45,89.273 36.45,88.145 L36.45,4.703 C36.45,2.364 38.346,0.468 40.683,0.468 C43.023,0.468 44.919,2.364 44.919,4.703 L44.919,86.385 L111.833,152.913 L111.833,102.073 C111.833,99.735 113.729,97.839 116.067,97.839 C118.407,97.839 120.303,99.735 120.303,102.073 L120.303,163.095 C120.303,164.806 119.274,166.349 117.694,167.006 C117.17,167.225 116.617,167.331 116.07,167.331 Z" id="Shape" fill="#000000"></path>
            <path d="M40.684,46.206 L5.109,46.206 C3.423,46.206 1.897,45.208 1.225,43.662 C0.552,42.115 0.862,40.317 2.01,39.085 L27.506,11.723 L36.738,1.816 C38.333,0.105 41.013,0.009 42.724,1.604 C44.435,3.199 44.529,5.878 42.935,7.59 L14.844,37.736 L40.684,37.736 C43.024,37.736 44.92,39.632 44.92,41.972 C44.92,44.311 43.023,46.206 40.684,46.206 Z" id="Shape" fill="#000000"></path>
            <path d="M85.685,54.784 C84.588,54.784 83.492,54.362 82.663,53.516 L37.663,7.669 C36.024,5.999 36.05,3.317 37.719,1.68 C39.389,0.041 42.07,0.067 43.708,1.736 L88.708,47.584 C90.347,49.253 90.321,51.934 88.652,53.572 C87.826,54.381 86.756,54.784 85.685,54.784 Z" id="Shape" fill="#000000"></path>
            <path d="M82.015,133.274 C80.802,133.274 79.599,132.756 78.761,131.752 C77.262,129.956 77.504,127.285 79.299,125.787 L205.176,20.796 L127.873,20.796 L43.229,91.397 C41.433,92.895 38.762,92.655 37.263,90.857 C35.765,89.062 36.007,86.39 37.803,84.892 L123.626,13.309 C124.388,12.675 125.347,12.327 126.338,12.327 L216.863,12.327 C218.645,12.327 220.238,13.444 220.844,15.12 C221.451,16.796 220.944,18.673 219.574,19.814 L84.726,132.292 C83.934,132.953 82.971,133.274 82.015,133.274 Z" id="Shape" fill="#000000"></path>
        </g>
    </g>
</svg>