<?xml version="1.0" encoding="UTF-8" standalone="no"?><!DOCTYPE svg PUBLIC "-//W3C//DTD SVG 1.1//EN" "http://www.w3.org/Graphics/SVG/1.1/DTD/svg11.dtd"><svg width="100%" height="100%" viewBox="0 0 60 92" version="1.1" xmlns="http://www.w3.org/2000/svg" xmlns:xlink="http://www.w3.org/1999/xlink" xml:space="preserve" xmlns:serif="http://www.serif.com/" style="fill-rule:evenodd;clip-rule:evenodd;stroke-linejoin:round;stroke-miterlimit:2;"><g opacity="0.4"><path d="M20.553,57.765l0.796,0l0,0.796l-0.796,0c-0.245,0 -0.491,0.185 -0.491,0.491c0,0.306 0.184,0.49 0.491,0.49l0.856,0l0,2.819c0,0.244 0.184,0.49 0.491,0.49l8.881,-0.002l0,5.45l0,0.122l0,1.594c0.062,1.041 1.531,1.775 1.838,1.9c0.122,0.062 0.244,0.062 0.368,0c0.306,-0.122 1.775,-0.857 1.838,-1.9l0,-1.347l10.412,0l0,1.347c0.062,1.041 1.532,1.775 1.838,1.9c0.122,0.062 0.244,0.062 0.368,0c0.307,-0.122 1.776,-0.857 1.838,-1.9l0,-7.288l8.941,0c0.244,0 0.491,-0.184 0.491,-0.49l0,-2.819l0.797,0c0.244,0 0.49,-0.184 0.49,-0.49c0,-0.307 -0.184,-0.491 -0.49,-0.491l-0.797,0l0,-0.797l0.797,0c0.244,0 0.49,-0.184 0.49,-0.49c0,-0.306 -0.184,-0.491 -0.49,-0.491l-0.797,0l0,-10.169c0,-0.244 -0.184,-0.49 -0.491,-0.49l-36.444,0c-0.244,0 -0.491,0.184 -0.491,0.49l0,10.356l-0.797,0c-0.244,0 -0.49,0.184 -0.49,0.49c0.002,0.306 0.309,0.428 0.553,0.428l0,0.001Zm16.6,1.715l0,2.328l-0.675,0l0,-2.328l0.675,0Zm1.591,0l0,2.328l-0.675,0l0,-2.328l0.675,0Zm1.656,0l0,2.328l-0.675,0l0,-2.328l0.675,0Zm1.591,0l0,2.328l-0.675,0l0,-2.328l0.675,0Zm1.653,0l0,2.328l-0.675,0l0,-2.328l0.675,0Zm1.594,0l0,2.328l-0.675,0l0,-2.328l0.675,0Zm10.35,-0.919l0,-0.796l0.675,0l0,0.796l-0.675,0Zm-0.919,0l-0.675,0l0,-0.796l0.675,0l0,0.796Zm-1.591,0l-0.675,0l0,-0.796l0.675,0l0,0.796Zm-1.653,0l-0.675,0l0,-0.796l0.675,0l0,0.796Zm-1.594,0l-0.55,0l0,-0.796l0.55,0l0,0.796Zm-3.675,9.128l0,-4.962l2.206,0l0,4.962l-2.206,0Zm-9.003,-0.797l0,0.735l-0.675,0l0,-0.797l0.675,0l0,0.062Zm0.919,0l0.674,0l-0.002,0.735l-0.675,0l0.003,-0.735Zm1.591,0l0.674,0l0,0.735l-0.674,0l0,-0.735Zm1.655,0l0.675,0l-0.002,0.735l-0.675,0l0.002,-0.735Zm1.591,0l0.675,0l0,0.735l-0.675,0l0,-0.735Zm-8.084,-0.919l0,-3.246l10.413,0l0,3.246l-10.413,0Zm-3.063,1.716l0,-4.962l2.144,0l0,4.962l-2.144,0Zm16.601,-5.881l-2.206,0l0,-2.328l2.206,0l0,2.328Zm-12.803,0l-0.675,0l0,-2.328l0.675,0l0,2.328Zm-1.653,0l-2.206,0l0,-2.328l2.206,0l0,2.328Zm-3.125,-3.247l-0.551,0l0,-0.797l0.551,0l0,0.797Zm-1.407,0l-0.675,0l0,-0.797l0.675,0l0,0.797Zm-1.656,0l-0.675,0l0,-0.797l0.675,0l0,0.797Zm-1.591,0l-0.675,0l0,-0.797l0.675,0l0,0.797Zm-1.593,0l-0.675,0l0,-0.797l0.675,0l0,0.797Zm-1.654,0l-0.612,0l0,-0.797l0.612,0l0,0.797Zm7.9,3.247l-8.512,0l0,-2.328l8.512,0l0,2.328Zm2.084,9.125c-0.49,-0.244 -1.103,-0.734 -1.103,-1.041l0,-1.287l2.144,0.002l0,1.288c0,0.304 -0.55,0.732 -1.041,1.038l0,0Zm1.96,-4.041l0.675,0l0,0.734l-0.675,0l0,-0.734Zm10.413,0.734l-0.675,0l0,-0.796l0.675,0l0,0.796Zm2.022,3.307c-0.491,-0.244 -1.104,-0.734 -1.104,-1.041l0,-1.287l2.144,0l0,1.287c0.062,0.307 -0.55,0.735 -1.04,1.041Zm10.534,-9.125l-8.513,0l0,-2.328l8.513,0l0,2.328Zm0,-3.247l-0.612,0l0,-0.797l0.612,0l0,0.797Zm0,-1.716l-8.513,0l0,-9.737l1.41,0l0,3l0,0.062c0.062,1.532 2.388,2.635 2.694,2.757c0.122,0.062 0.244,0.062 0.368,0c0.244,-0.122 2.635,-1.225 2.694,-2.757l0,-3.062l1.347,0l0,9.737Zm-6.247,-9.737l3.919,0l0,2.94c0,0.735 -1.287,1.594 -1.959,1.9c-0.675,-0.306 -1.96,-1.163 -1.96,-1.9l0,-2.94Zm-3.184,11.453l-2.207,0l0,-11.394l2.207,0l0,11.394Zm-3.125,0l-10.413,0l0,-11.394l0.55,0l0,5.513l0,0.062c0.063,2.572 4.288,4.472 4.472,4.532c0.122,0.062 0.244,0.062 0.369,0c0.184,-0.063 4.409,-2.022 4.471,-4.532l0,-5.575l0.551,0l0,11.394Zm-8.944,-11.453l7.474,0l0,5.45c0,1.594 -2.572,3.125 -3.737,3.675c-1.225,-0.55 -3.737,-2.144 -3.737,-3.675l0,-5.45Zm-2.388,11.453l-2.206,0l0,-11.394l2.206,0.003l0,11.391Zm-9.31,-11.453l3.92,0l0,2.94c0,0.735 -1.288,1.594 -1.96,1.9c-0.675,-0.306 -1.96,-1.163 -1.96,-1.9l0,-2.94Zm-2.328,0l1.41,0l0,3l0,0.062c0.062,1.532 2.387,2.635 2.694,2.757c0.122,0.062 0.244,0.062 0.368,0c0.244,-0.122 2.634,-1.225 2.694,-2.757l0,-3.062l1.347,0l0,9.737l-8.512,0l-0.001,-9.737Z" style="fill:#794acf;fill-rule:nonzero;"/><path d="M39.481,64.38c-0.122,0 -0.244,0.063 -0.306,0.122c-0.062,0.063 -0.122,0.185 -0.122,0.307c0,0.122 0.062,0.244 0.122,0.306c0.184,0.184 0.49,0.184 0.675,0c0.062,-0.062 0.122,-0.184 0.122,-0.306c0,-0.122 -0.063,-0.244 -0.122,-0.307c-0.125,-0.059 -0.247,-0.122 -0.369,-0.122l0,0Z" style="fill:#794acf;fill-rule:nonzero;"/><path d="M37.95,64.38l-1.288,0l0,-0.368c0,-0.244 -0.184,-0.491 -0.49,-0.491c-0.244,0 -0.49,0.185 -0.49,0.491l0,0.797c0,0.244 0.184,0.49 0.49,0.49l1.775,0c0.244,0 0.491,-0.184 0.491,-0.49c0,-0.307 -0.244,-0.429 -0.488,-0.429l0,0Z" style="fill:#794acf;fill-rule:nonzero;"/></g><g opacity="0.4"><path d="M39.447,14.197l-0.796,0l0,-0.797l0.796,0c0.245,0 0.491,-0.184 0.491,-0.491c0,-0.306 -0.184,-0.49 -0.491,-0.49l-0.856,0l0,-2.819c0,-0.244 -0.184,-0.49 -0.491,-0.49l-8.881,0.002l0,-5.45l0,-0.122l0,-1.594c-0.062,-1.04 -1.531,-1.775 -1.838,-1.899c-0.122,-0.063 -0.244,-0.063 -0.368,0c-0.306,0.122 -1.775,0.856 -1.838,1.899l0,1.347l-10.412,0l0,-1.347c-0.062,-1.04 -1.532,-1.775 -1.838,-1.899c-0.122,-0.063 -0.244,-0.063 -0.368,0c-0.307,0.122 -1.776,0.856 -1.838,1.899l0,7.288l-8.941,0c-0.244,0 -0.491,0.184 -0.491,0.491l0,2.818l-0.797,0c-0.244,0 -0.49,0.184 -0.49,0.491c0,0.306 0.184,0.49 0.49,0.49l0.797,0l0,0.797l-0.797,0c-0.244,0 -0.49,0.184 -0.49,0.49c0,0.307 0.184,0.491 0.49,0.491l0.797,0l0,10.169c0,0.244 0.184,0.49 0.491,0.49l36.444,0c0.244,0 0.491,-0.184 0.491,-0.49l0,-10.355l0.797,0c0.244,0 0.49,-0.185 0.49,-0.491c-0.002,-0.306 -0.309,-0.428 -0.553,-0.428l0,0Zm-16.6,-1.716l0,-2.328l0.675,0l0,2.328l-0.675,0Zm-1.591,0l0,-2.328l0.675,0l0,2.328l-0.675,0Zm-1.656,0l0,-2.328l0.675,0l0,2.328l-0.675,0Zm-1.591,0l0,-2.328l0.675,0l0,2.328l-0.675,0Zm-1.653,0l0,-2.328l0.675,0l0,2.328l-0.675,0Zm-1.594,0l0,-2.328l0.675,0l0,2.328l-0.675,0Zm-10.35,0.919l0,0.797l-0.675,0l0,-0.797l0.675,0Zm0.919,0l0.675,0l0,0.797l-0.675,0l0,-0.797Zm1.591,0l0.675,0l0,0.797l-0.675,0l0,-0.797Zm1.653,0l0.675,0l0,0.797l-0.675,0l0,-0.797Zm1.594,0l0.55,0l0,0.797l-0.55,0l0,-0.797Zm3.675,-9.128l0,4.963l-2.206,0l0,-4.963l2.206,0Zm9.003,0.797l0,-0.734l0.675,0l0,0.796l-0.675,0l0,-0.062Zm-0.919,0l-0.674,0l0.002,-0.734l0.675,0l-0.003,0.734Zm-1.591,0l-0.674,0l0,-0.734l0.674,0l0,0.734Zm-1.655,0l-0.675,0l0.002,-0.734l0.675,0l-0.002,0.734Zm-1.591,0l-0.675,0l0,-0.734l0.675,0l0,0.734Zm8.084,0.919l0,3.247l-10.413,0l0,-3.247l10.413,0Zm3.063,-1.716l0,4.963l-2.144,0l0,-4.963l2.144,0Zm-16.601,5.881l2.206,0l0,2.328l-2.206,0l0,-2.328Zm12.803,0l0.675,0l0,2.328l-0.675,0l0,-2.328Zm1.653,0l2.206,0l0,2.328l-2.206,0l0,-2.328Zm3.125,3.247l0.551,0l0,0.797l-0.551,0l0,-0.797Zm1.407,0l0.675,0l0,0.797l-0.675,0l0,-0.797Zm1.656,0l0.675,0l0,0.797l-0.675,0l0,-0.797Zm1.591,0l0.675,0l0,0.797l-0.675,0l0,-0.797Zm1.593,0l0.675,0l0,0.797l-0.675,0l0,-0.797Zm1.654,0l0.612,0l0,0.797l-0.612,0l0,-0.797Zm-7.9,-3.247l8.512,0l0,2.328l-8.512,0l0,-2.328Zm-2.084,-9.125c0.49,0.244 1.103,0.735 1.103,1.041l0,1.287l-2.144,-0.002l0,-1.287c0,-0.304 0.55,-0.733 1.041,-1.039l0,0Zm-1.96,4.041l-0.675,0l0,-0.734l0.675,0l0,0.734Zm-10.413,-0.734l0.675,0l0,0.797l-0.675,0l0,-0.797Zm-2.022,-3.307c0.491,0.244 1.104,0.735 1.104,1.041l0,1.287l-2.144,0l0,-1.287c-0.062,-0.306 0.55,-0.735 1.04,-1.041Zm-10.534,9.125l8.513,0l0,2.329l-8.513,0l0,-2.329Zm0,3.247l0.612,0l0,0.797l-0.612,0l0,-0.797Zm0,1.716l8.513,0l0,9.738l-1.41,0l0,-3.001l0,-0.062c-0.062,-1.531 -2.388,-2.634 -2.694,-2.756c-0.122,-0.063 -0.244,-0.063 -0.368,0c-0.244,0.122 -2.635,1.225 -2.694,2.756l0,3.063l-1.347,0l0,-9.738Zm6.247,9.738l-3.919,0l0,-2.941c0,-0.735 1.287,-1.594 1.959,-1.9c0.675,0.306 1.96,1.163 1.96,1.9l0,2.941Zm3.184,-11.454l2.207,0l0,11.394l-2.207,0l0,-11.394Zm3.125,0l10.413,0l0,11.394l-0.55,0l0,-5.512l0,-0.063c-0.063,-2.572 -4.288,-4.472 -4.472,-4.531c-0.122,-0.063 -0.244,-0.063 -0.369,0c-0.184,0.062 -4.409,2.021 -4.471,4.531l0,5.575l-0.551,0l0,-11.394Zm8.944,11.454l-7.474,0l0,-5.451c0,-1.593 2.572,-3.125 3.737,-3.675c1.225,0.55 3.737,2.144 3.737,3.675l0,5.451Zm2.388,-11.454l2.206,0l0,11.394l-2.206,-0.002l0,-11.392Zm9.31,11.454l-3.92,0l0,-2.941c0,-0.735 1.288,-1.594 1.96,-1.9c0.675,0.306 1.96,1.163 1.96,1.9l0,2.941Zm2.328,0l-1.41,0l0,-3.001l0,-0.062c-0.062,-1.531 -2.387,-2.634 -2.694,-2.756c-0.122,-0.063 -0.244,-0.063 -0.368,0c-0.244,0.122 -2.634,1.225 -2.694,2.756l0,3.063l-1.347,0l0,-9.738l8.512,0l0.001,9.738Z" style="fill:#794acf;fill-rule:nonzero;"/><path d="M20.491,7.581c0.122,0 0.244,-0.062 0.306,-0.122c0.062,-0.062 0.122,-0.184 0.122,-0.306c0,-0.122 -0.062,-0.244 -0.122,-0.307c-0.184,-0.184 -0.491,-0.184 -0.675,0c-0.062,0.063 -0.122,0.185 -0.122,0.307c0,0.122 0.062,0.244 0.122,0.306c0.124,0.06 0.246,0.122 0.368,0.122l0.001,0Z" style="fill:#794acf;fill-rule:nonzero;"/><path d="M22.022,7.581l1.287,0l0,0.368c0,0.244 0.184,0.491 0.491,0.491c0.244,0 0.49,-0.184 0.49,-0.491l0,-0.796c0,-0.244 -0.184,-0.491 -0.49,-0.491l-1.776,0c-0.244,0 -0.49,0.184 -0.49,0.491c0,0.306 0.244,0.428 0.488,0.428l0,0Z" style="fill:#794acf;fill-rule:nonzero;"/></g></svg>