<?xml version="1.0" encoding="UTF-8" standalone="no"?>
<!-- Created with Inkscape (http://www.inkscape.org/) -->

<svg
   xmlns:dc="http://purl.org/dc/elements/1.1/"
   xmlns:cc="http://creativecommons.org/ns#"
   xmlns:rdf="http://www.w3.org/1999/02/22-rdf-syntax-ns#"
   xmlns:svg="http://www.w3.org/2000/svg"
   xmlns="http://www.w3.org/2000/svg"
   xmlns:sodipodi="http://sodipodi.sourceforge.net/DTD/sodipodi-0.dtd"
   xmlns:inkscape="http://www.inkscape.org/namespaces/inkscape"
   width="374.767"
   height="388.11996"
   viewBox="0 0 99.157099 102.69008"
   version="1.1"
   id="svg8"
   inkscape:version="0.92.2 5c3e80d, 2017-08-06"
   sodipodi:docname="retail.svg">
  <defs
     id="defs2">
    <clipPath
       clipPathUnits="userSpaceOnUse"
       id="clipPath928">
      <rect
         ry="35.271599"
         rx="35.271599"
         y="36.632778"
         x="79.439369"
         height="99.156998"
         width="99.156998"
         id="rect930"
         style="opacity:1;vector-effect:none;fill:#f0f4f7;fill-opacity:1;stroke:none;stroke-width:5.29166698;stroke-linecap:round;stroke-linejoin:miter;stroke-miterlimit:4;stroke-dasharray:none;stroke-dashoffset:0;stroke-opacity:1;paint-order:normal"
         transform="scale(-1,1)" />
    </clipPath>
    <clipPath
       clipPathUnits="userSpaceOnUse"
       id="clipPath863">
      <rect
         style="opacity:1;vector-effect:none;fill:#f0f4f7;fill-opacity:1;stroke:none;stroke-width:5.29166698;stroke-linecap:round;stroke-linejoin:miter;stroke-miterlimit:4;stroke-dasharray:none;stroke-dashoffset:0;stroke-opacity:1;paint-order:normal"
         id="rect866"
         width="99.157104"
         height="99.156998"
         x="21.70915"
         y="66.834236"
         rx="35.271599"
         ry="35.271599"
         transform="scale(-1,1)" />
    </clipPath>
    <clipPath
       clipPathUnits="userSpaceOnUse"
       id="clipPath1016">
      <path
         style="opacity:1;vector-effect:none;fill:#f0f4f7;fill-opacity:1;stroke:none;stroke-width:5.29166698;stroke-linecap:round;stroke-linejoin:miter;stroke-miterlimit:4;stroke-dasharray:none;stroke-dashoffset:0;stroke-opacity:1;paint-order:normal"
         d="m -236.921,38.602797 h -24.65136 c -16.83449,0 -30.38719,13.552685 -30.38719,30.387188 v 24.651361 c 0,16.834494 13.5527,30.387184 30.38719,30.387184 h 24.65136 c 16.83451,0 30.38719,-13.55269 30.38719,-30.387184 V 68.989985 c 0,-16.834503 -13.55268,-30.387188 -30.38719,-30.387188 z"
         id="path1018"
         inkscape:connector-curvature="0" />
    </clipPath>
    <clipPath
       clipPathUnits="userSpaceOnUse"
       id="clipPath1020">
      <path
         style="opacity:1;vector-effect:none;fill:#f0f4f7;fill-opacity:1;stroke:none;stroke-width:5.29166698;stroke-linecap:round;stroke-linejoin:miter;stroke-miterlimit:4;stroke-dasharray:none;stroke-dashoffset:0;stroke-opacity:1;paint-order:normal"
         d="m -74.368778,20.385444 h -30.075052 c -20.53835,0 -37.07284,16.534489 -37.07284,37.072848 v 30.075049 c 0,20.538349 16.53449,37.072849 37.07284,37.072849 h 30.075052 c 20.538359,0 37.072848,-16.5345 37.072848,-37.072849 V 57.458292 c 0,-20.538359 -16.534489,-37.072848 -37.072848,-37.072848 z"
         id="path1022"
         inkscape:connector-curvature="0" />
    </clipPath>
  </defs>
  <sodipodi:namedview
     id="base"
     pagecolor="#ffffff"
     bordercolor="#666666"
     borderopacity="1.0"
     inkscape:pageopacity="0.0"
     inkscape:pageshadow="2"
     inkscape:zoom="0.70000001"
     inkscape:cx="136.12174"
     inkscape:cy="-116.85438"
     inkscape:document-units="px"
     inkscape:current-layer="g1190"
     showgrid="false"
     inkscape:window-width="1920"
     inkscape:window-height="1149"
     inkscape:window-x="0"
     inkscape:window-y="24"
     inkscape:window-maximized="1"
     units="px"
     inkscape:snap-global="false"
     showguides="false" />
  <metadata
     id="metadata5">
    <rdf:RDF>
      <cc:Work
         rdf:about="">
        <dc:format>image/svg+xml</dc:format>
        <dc:type
           rdf:resource="http://purl.org/dc/dcmitype/StillImage" />
        <dc:title />
      </cc:Work>
    </rdf:RDF>
  </metadata>
  <g
     inkscape:label="Layer 1"
     inkscape:groupmode="layer"
     id="layer1"
     transform="translate(147.74731,-43.790478)">
    <g
       id="g1190"
       transform="matrix(-1,0,0,1,-227.18668,10.690781)">
      <rect
         style="opacity:1;vector-effect:none;fill:#f0f4f7;fill-opacity:1;stroke:none;stroke-width:5.29166698;stroke-linecap:round;stroke-linejoin:miter;stroke-miterlimit:4;stroke-dasharray:none;stroke-dashoffset:0;stroke-opacity:1;paint-order:normal"
         id="rect902"
         width="99.156998"
         height="99.156998"
         x="79.439369"
         y="36.632778"
         transform="scale(-1,1)"
         rx="35.271599"
         ry="35.271599" />
      <g
         id="g936"
         transform="matrix(1.1607392,0,0,1.1607392,160.29252,-8.1750014)"
         style="stroke-width:0.86151993"
         clip-path="url(#clipPath1016)" />
      <path
         style="opacity:1;vector-effect:none;fill:#8D99A6;fill-opacity:1;stroke:none;stroke-width:1;stroke-linecap:butt;stroke-linejoin:miter;stroke-miterlimit:4;stroke-dasharray:none;stroke-dashoffset:0;stroke-opacity:1;paint-order:normal"
         d="m -89.733341,55.864945 c 0.763247,0 1.377695,0.614452 1.377695,1.377694 v 3.646317 c 0,0.763243 -0.614448,1.377694 -1.377695,1.377694 h -11.563489 l -13.62276,50.84124 c -0.16084,0.60027 -0.68979,0.99951 -1.27867,1.02062 -0.1205,0.0342 -0.24737,0.0538 -0.37914,0.0538 h -36.21157 c -0.76324,0 -1.37769,-0.61445 -1.37769,-1.3777 v -3.7857 c 0,-0.76324 0.61445,-1.37769 1.37769,-1.37769 h 32.56256 l 1.23051,-4.59241 h -34.54246 c -0.61483,0 -0.91179,-0.65507 -1.10969,-1.37769 l -7.28698,-26.60915 c -0.24352,-0.88923 0.67209,-1.655924 1.50712,-1.655924 h 49.37475 l 4.4105,-16.460761 c 0.10414,-0.388659 0.36327,-0.691889 0.69235,-0.864019 0.2139,-0.136443 0.46774,-0.216341 0.74132,-0.216341 z m -34.059999,59.848185 a 3.7575411,3.7575411 0 0 1 3.75744,3.75745 3.7575411,3.7575411 0 0 1 -3.75744,3.75771 3.7575411,3.7575411 0 0 1 -3.75745,-3.75771 3.7575411,3.7575411 0 0 1 3.75745,-3.75745 z m -21.84938,0 a 3.7575411,3.7575411 0 0 1 3.75745,3.75745 3.7575411,3.7575411 0 0 1 -3.75745,3.75771 3.7575411,3.7575411 0 0 1 -3.75744,-3.75771 3.7575411,3.7575411 0 0 1 3.75744,-3.75745 z"
         id="rect853"
         inkscape:connector-curvature="0" />
      <path
         style="fill:#8D99A6;fill-opacity:1;stroke:none;stroke-width:0.26458335px;stroke-linecap:butt;stroke-linejoin:miter;stroke-opacity:1"
         d="m -85.203507,66.147659 -13.134671,0.09449 -1.13393,3.685269 z"
         id="path884"
         inkscape:connector-curvature="0"
         sodipodi:nodetypes="cccc" />
      <path
         sodipodi:nodetypes="cccc"
         inkscape:connector-curvature="0"
         id="path886"
         d="m -87.613105,72.620501 -12.614955,0.330725 -1.03944,3.35454 z"
         style="fill:#8D99A6;fill-opacity:1;stroke:none;stroke-width:0.26458335px;stroke-linecap:butt;stroke-linejoin:miter;stroke-opacity:1" />
      <path
         style="fill:#8D99A6;fill-opacity:1;stroke:none;stroke-width:0.26458335px;stroke-linecap:butt;stroke-linejoin:miter;stroke-opacity:1"
         d="m -92.574042,79.093343 -9.756098,0.330725 -1.11072,3.35454 z"
         id="path888"
         inkscape:connector-curvature="0"
         sodipodi:nodetypes="cccc" />
    </g>
  </g>
</svg>
