<?xml version="1.0" encoding="UTF-8" standalone="no"?>
<!-- Created with Inkscape (http://www.inkscape.org/) -->

<svg
   xmlns:dc="http://purl.org/dc/elements/1.1/"
   xmlns:cc="http://creativecommons.org/ns#"
   xmlns:rdf="http://www.w3.org/1999/02/22-rdf-syntax-ns#"
   xmlns:svg="http://www.w3.org/2000/svg"
   xmlns="http://www.w3.org/2000/svg"
   xmlns:sodipodi="http://sodipodi.sourceforge.net/DTD/sodipodi-0.dtd"
   xmlns:inkscape="http://www.inkscape.org/namespaces/inkscape"
   width="374.767"
   height="388.11996"
   viewBox="0 0 99.157099 102.69008"
   version="1.1"
   id="svg8"
   inkscape:version="0.92.2 5c3e80d, 2017-08-06"
   sodipodi:docname="services.svg">
  <defs
     id="defs2">
    <clipPath
       clipPathUnits="userSpaceOnUse"
       id="clipPath928">
      <rect
         ry="35.271599"
         rx="35.271599"
         y="36.632778"
         x="79.439369"
         height="99.156998"
         width="99.156998"
         id="rect930"
         style="opacity:1;vector-effect:none;fill:#f0f4f7;fill-opacity:1;stroke:none;stroke-width:5.29166698;stroke-linecap:round;stroke-linejoin:miter;stroke-miterlimit:4;stroke-dasharray:none;stroke-dashoffset:0;stroke-opacity:1;paint-order:normal"
         transform="scale(-1,1)" />
    </clipPath>
    <clipPath
       clipPathUnits="userSpaceOnUse"
       id="clipPath863">
      <rect
         style="opacity:1;vector-effect:none;fill:#f0f4f7;fill-opacity:1;stroke:none;stroke-width:5.29166698;stroke-linecap:round;stroke-linejoin:miter;stroke-miterlimit:4;stroke-dasharray:none;stroke-dashoffset:0;stroke-opacity:1;paint-order:normal"
         id="rect866"
         width="99.157104"
         height="99.156998"
         x="21.70915"
         y="66.834236"
         rx="35.271599"
         ry="35.271599"
         transform="scale(-1,1)" />
    </clipPath>
    <clipPath
       clipPathUnits="userSpaceOnUse"
       id="clipPath1016">
      <path
         style="opacity:1;vector-effect:none;fill:#f0f4f7;fill-opacity:1;stroke:none;stroke-width:5.29166698;stroke-linecap:round;stroke-linejoin:miter;stroke-miterlimit:4;stroke-dasharray:none;stroke-dashoffset:0;stroke-opacity:1;paint-order:normal"
         d="m -236.921,38.602797 h -24.65136 c -16.83449,0 -30.38719,13.552685 -30.38719,30.387188 v 24.651361 c 0,16.834494 13.5527,30.387184 30.38719,30.387184 h 24.65136 c 16.83451,0 30.38719,-13.55269 30.38719,-30.387184 V 68.989985 c 0,-16.834503 -13.55268,-30.387188 -30.38719,-30.387188 z"
         id="path1018"
         inkscape:connector-curvature="0" />
    </clipPath>
    <clipPath
       clipPathUnits="userSpaceOnUse"
       id="clipPath1020">
      <path
         style="opacity:1;vector-effect:none;fill:#f0f4f7;fill-opacity:1;stroke:none;stroke-width:5.29166698;stroke-linecap:round;stroke-linejoin:miter;stroke-miterlimit:4;stroke-dasharray:none;stroke-dashoffset:0;stroke-opacity:1;paint-order:normal"
         d="m -74.368778,20.385444 h -30.075052 c -20.53835,0 -37.07284,16.534489 -37.07284,37.072848 v 30.075049 c 0,20.538349 16.53449,37.072849 37.07284,37.072849 h 30.075052 c 20.538359,0 37.072848,-16.5345 37.072848,-37.072849 V 57.458292 c 0,-20.538359 -16.534489,-37.072848 -37.072848,-37.072848 z"
         id="path1022"
         inkscape:connector-curvature="0" />
    </clipPath>
  </defs>
  <sodipodi:namedview
     id="base"
     pagecolor="#ffffff"
     bordercolor="#666666"
     borderopacity="1.0"
     inkscape:pageopacity="0.0"
     inkscape:pageshadow="2"
     inkscape:zoom="1.979899"
     inkscape:cx="122.98415"
     inkscape:cy="280.42805"
     inkscape:document-units="px"
     inkscape:current-layer="g1190"
     showgrid="false"
     inkscape:window-width="1920"
     inkscape:window-height="1149"
     inkscape:window-x="0"
     inkscape:window-y="24"
     inkscape:window-maximized="1"
     units="px"
     inkscape:snap-global="false"
     showguides="false" />
  <metadata
     id="metadata5">
    <rdf:RDF>
      <cc:Work
         rdf:about="">
        <dc:format>image/svg+xml</dc:format>
        <dc:type
           rdf:resource="http://purl.org/dc/dcmitype/StillImage" />
        <dc:title />
      </cc:Work>
    </rdf:RDF>
  </metadata>
  <g
     inkscape:label="Layer 1"
     inkscape:groupmode="layer"
     id="layer1"
     transform="translate(147.74731,-43.790478)">
    <g
       id="g1190"
       transform="matrix(-1,0,0,1,-227.18668,10.690781)">
      <rect
         style="opacity:1;vector-effect:none;fill:#f0f4f7;fill-opacity:1;stroke:none;stroke-width:5.29166698;stroke-linecap:round;stroke-linejoin:miter;stroke-miterlimit:4;stroke-dasharray:none;stroke-dashoffset:0;stroke-opacity:1;paint-order:normal"
         id="rect902"
         width="99.156998"
         height="99.156998"
         x="79.439369"
         y="36.632778"
         transform="scale(-1,1)"
         rx="35.271599"
         ry="35.271599" />
      <g
         id="g943"
         transform="matrix(0.95141329,0,0,0.95141329,-43.955526,17.237796)"
         style="stroke-width:1.05106795"
         clip-path="url(#clipPath1020)">
        <path
           sodipodi:nodetypes="csssccc"
           inkscape:connector-curvature="0"
           id="path887"
           d="m -107.51466,92.248179 c 12.196933,2.579277 15.781464,11.709441 15.781464,22.454441 2e-6,12.80319 -8.771964,11.68973 -21.900984,11.68973 -13.12903,0 -25.6434,1.11346 -25.6434,-11.68973 0,-10.71937 3.56831,-19.644209 15.69517,-22.344369 1.17713,7.35457 3.16497,14.405119 6.3562,21.004399 4.66505,-6.6098 7.5562,-13.751764 9.71155,-21.114471 z"
           style="opacity:1;vector-effect:none;fill:#8D99A6;fill-opacity:1;stroke:none;stroke-width:1.05106795;stroke-linecap:butt;stroke-linejoin:miter;stroke-miterlimit:4;stroke-dasharray:none;stroke-dashoffset:0;stroke-opacity:1;paint-order:normal" />
        <path
           sodipodi:nodetypes="sssss"
           inkscape:connector-curvature="0"
           id="ellipse889"
           d="m -126.31305,73.38162 c 0,7.22933 3.24292,17.363026 11.43958,17.363026 8.19666,0 11.81756,-10.133696 11.81756,-17.363026 0,-7.229329 -3.43191,-13.089857 -11.62857,-13.089858 -8.19666,1e-6 -11.62857,5.860529 -11.62857,13.089858 z"
           style="opacity:1;vector-effect:none;fill:#8D99A6;fill-opacity:1;stroke:none;stroke-width:1.05106783;stroke-linecap:butt;stroke-linejoin:miter;stroke-miterlimit:4;stroke-dasharray:none;stroke-dashoffset:0;stroke-opacity:1;paint-order:normal" />
        <ellipse
           ry="2.854038"
           rx="1.1083163"
           transform="matrix(-0.89769352,-0.4406204,-0.15127678,0.98849144,0,0)"
           cy="120.27486"
           cx="94.967995"
           id="path900"
           style="opacity:1;vector-effect:none;fill:#8D99A6;fill-opacity:1;stroke:none;stroke-width:1.07609963;stroke-linecap:butt;stroke-linejoin:miter;stroke-miterlimit:4;stroke-dasharray:none;stroke-dashoffset:0;stroke-opacity:1;paint-order:normal" />
        <ellipse
           style="opacity:1;vector-effect:none;fill:#8D99A6;fill-opacity:1;stroke:none;stroke-width:1.07609963;stroke-linecap:butt;stroke-linejoin:miter;stroke-miterlimit:4;stroke-dasharray:none;stroke-dashoffset:0;stroke-opacity:1;paint-order:normal"
           id="ellipse902"
           cx="-142.70425"
           cy="14.332372"
           transform="matrix(0.89769352,-0.4406204,0.15127678,0.98849144,0,0)"
           rx="1.1083163"
           ry="2.854038" />
        <path
           sodipodi:nodetypes="scccccsss"
           inkscape:connector-curvature="0"
           id="path904"
           d="m -114.30767,94.753969 c -0.0208,0.545078 -1.1456,1.168541 -1.1456,1.168541 l 1.8543,9.50996 -3.54352,5.93058 -2.31511,-5.91151 2.88048,-9.52903 c 0,0 -1.15721,-0.61553 -1.17958,-1.168541 -0.036,-0.890901 0.85042,-2.034331 1.74204,-2.02986 0.88405,0.0044 1.7407,1.146437 1.70699,2.02986 z"
           style="fill:#8D99A6;fill-opacity:1;stroke:none;stroke-width:0.27809507px;stroke-linecap:butt;stroke-linejoin:miter;stroke-opacity:1" />
      </g>
      <g
         id="g936"
         transform="matrix(1.1607392,0,0,1.1607392,160.29252,-8.1750014)"
         style="stroke-width:0.86151993"
         clip-path="url(#clipPath1016)">
        <path
           style="opacity:1;vector-effect:none;fill:#8D99A6;fill-opacity:1;stroke:#f0f4f7;stroke-width:0.86151993;stroke-linecap:butt;stroke-linejoin:miter;stroke-miterlimit:4;stroke-dasharray:none;stroke-dashoffset:0;stroke-opacity:1;paint-order:normal"
           d="m -225.25425,93.949071 c 12.19694,2.579277 15.78147,11.709449 15.78147,22.454449 0,12.80319 -8.77197,11.68973 -21.90099,11.68973 -13.12903,0 -25.6434,1.11346 -25.6434,-11.68973 0,-10.71937 3.56831,-19.644217 15.69517,-22.344377 1.17713,7.354567 -0.97417,12.996137 6.3562,12.986317 8.09024,-0.0108 7.5562,-5.73368 9.71155,-13.096389 z"
           id="path906"
           inkscape:connector-curvature="0"
           sodipodi:nodetypes="cssscsc" />
        <path
           inkscape:connector-curvature="0"
           id="path916"
           d="m -229.2681,61.1005 c 0.47298,-0.0043 0.9724,0.06386 1.52807,0.245978 3.56078,1.167008 5.74767,4.093702 7.12153,7.579899 2.88678,7.325263 3.17758,22.51749 3.17758,22.51749 0,0 -6.33612,1.278242 -10.34665,1.643311 2.50047,-1.769549 4.145,-4.898665 5.02243,-8.174178 a 0.92946307,2.5481372 5.890335 0 0 0.0419,0.02481 0.92946307,2.5481372 5.890335 0 0 1.264,-2.066541 0.92946307,2.5481372 5.890335 0 0 -0.4749,-2.916619 c -3.53923,0.534384 -8.05668,-7.109796 -10.30739,-11.425658 -2.32865,4.4358 -6.75709,11.800152 -10.21332,11.131103 -0.0461,-0.0089 -0.0901,-0.02016 -0.13488,-0.03049 0.002,0.09646 0.002,0.191119 0.005,0.288353 a 2.5481372,0.92946307 84.109665 0 0 -0.0625,0.02119 2.5481372,0.92946307 84.109665 0 0 -0.49868,2.932121 2.5481372,0.92946307 84.109665 0 0 1.26091,2.067573 c 0.76892,3.079665 2.18864,6.025986 4.38939,7.832082 -4.57252,-0.394753 -8.87698,-0.926042 -8.87698,-0.926042 0,0 -1.16449,-15.416591 1.67019,-22.9185 1.08362,-2.867781 3.15694,-5.744988 5.94692,-7.015591 1.56088,-0.710853 3.44086,0.261223 5.14491,0.06666 1.74294,-0.199009 2.92341,-0.864111 4.34237,-0.876948 z"
           style="fill:#8D99A6;fill-opacity:1;stroke:none;stroke-width:0.22794384px;stroke-linecap:butt;stroke-linejoin:miter;stroke-opacity:1" />
      </g>
    </g>
  </g>
</svg>
